<?xml version="1.0" encoding="utf-8"?>
<svg xmlns="http://www.w3.org/2000/svg" xmlns:xlink="http://www.w3.org/1999/xlink" width="672" height="480" viewBox="0 0 2688 1920">
<defs>
  <clipPath id="clip450">
    <rect x="0" y="0" width="2688" height="1920"/>
  </clipPath>
</defs>
<path clip-path="url(#clip450)" d="M0 1920 L2688 1920 L2688 0 L0 0  Z" fill="#ffffff" fill-rule="evenodd" fill-opacity="1"/>
<defs>
  <clipPath id="clip451">
    <rect x="537" y="0" width="1883" height="1883"/>
  </clipPath>
</defs>
<path clip-path="url(#clip450)" d="M255.816 1734.12 L2640.76 1734.12 L2640.76 47.2441 L255.816 47.2441  Z" fill="#ffffff" fill-rule="evenodd" fill-opacity="1"/>
<defs>
  <clipPath id="clip452">
    <rect x="255" y="47" width="2386" height="1688"/>
  </clipPath>
</defs>
<polyline clip-path="url(#clip452)" style="stroke:#000000; stroke-linecap:round; stroke-linejoin:round; stroke-width:2; stroke-opacity:0.1; fill:none" points="308.214,1734.12 308.214,47.2441 "/>
<polyline clip-path="url(#clip452)" style="stroke:#000000; stroke-linecap:round; stroke-linejoin:round; stroke-width:2; stroke-opacity:0.1; fill:none" points="1063.23,1734.12 1063.23,47.2441 "/>
<polyline clip-path="url(#clip452)" style="stroke:#000000; stroke-linecap:round; stroke-linejoin:round; stroke-width:2; stroke-opacity:0.1; fill:none" points="1818.24,1734.12 1818.24,47.2441 "/>
<polyline clip-path="url(#clip452)" style="stroke:#000000; stroke-linecap:round; stroke-linejoin:round; stroke-width:2; stroke-opacity:0.1; fill:none" points="2573.26,1734.12 2573.26,47.2441 "/>
<polyline clip-path="url(#clip452)" style="stroke:#000000; stroke-linecap:round; stroke-linejoin:round; stroke-width:2; stroke-opacity:0.1; fill:none" points="255.816,1692.82 2640.76,1692.82 "/>
<polyline clip-path="url(#clip452)" style="stroke:#000000; stroke-linecap:round; stroke-linejoin:round; stroke-width:2; stroke-opacity:0.1; fill:none" points="255.816,1236.84 2640.76,1236.84 "/>
<polyline clip-path="url(#clip452)" style="stroke:#000000; stroke-linecap:round; stroke-linejoin:round; stroke-width:2; stroke-opacity:0.1; fill:none" points="255.816,780.867 2640.76,780.867 "/>
<polyline clip-path="url(#clip452)" style="stroke:#000000; stroke-linecap:round; stroke-linejoin:round; stroke-width:2; stroke-opacity:0.1; fill:none" points="255.816,324.892 2640.76,324.892 "/>
<polyline clip-path="url(#clip450)" style="stroke:#000000; stroke-linecap:round; stroke-linejoin:round; stroke-width:4; stroke-opacity:1; fill:none" points="255.816,1734.12 2640.76,1734.12 "/>
<polyline clip-path="url(#clip450)" style="stroke:#000000; stroke-linecap:round; stroke-linejoin:round; stroke-width:4; stroke-opacity:1; fill:none" points="308.214,1734.12 308.214,1715.22 "/>
<polyline clip-path="url(#clip450)" style="stroke:#000000; stroke-linecap:round; stroke-linejoin:round; stroke-width:4; stroke-opacity:1; fill:none" points="1063.23,1734.12 1063.23,1715.22 "/>
<polyline clip-path="url(#clip450)" style="stroke:#000000; stroke-linecap:round; stroke-linejoin:round; stroke-width:4; stroke-opacity:1; fill:none" points="1818.24,1734.12 1818.24,1715.22 "/>
<polyline clip-path="url(#clip450)" style="stroke:#000000; stroke-linecap:round; stroke-linejoin:round; stroke-width:4; stroke-opacity:1; fill:none" points="2573.26,1734.12 2573.26,1715.22 "/>
<path clip-path="url(#clip450)" d="M308.214 1767.34 Q304.603 1767.34 302.775 1770.9 Q300.969 1774.45 300.969 1781.58 Q300.969 1788.68 302.775 1792.25 Q304.603 1795.79 308.214 1795.79 Q311.849 1795.79 313.654 1792.25 Q315.483 1788.68 315.483 1781.58 Q315.483 1774.45 313.654 1770.9 Q311.849 1767.34 308.214 1767.34 M308.214 1763.64 Q314.024 1763.64 317.08 1768.24 Q320.159 1772.83 320.159 1781.58 Q320.159 1790.3 317.08 1794.91 Q314.024 1799.49 308.214 1799.49 Q302.404 1799.49 299.325 1794.91 Q296.27 1790.3 296.27 1781.58 Q296.27 1772.83 299.325 1768.24 Q302.404 1763.64 308.214 1763.64 Z" fill="#000000" fill-rule="nonzero" fill-opacity="1" /><path clip-path="url(#clip450)" d="M1037.93 1764.26 L1056.28 1764.26 L1056.28 1768.2 L1042.21 1768.2 L1042.21 1776.67 Q1043.23 1776.32 1044.25 1776.16 Q1045.27 1775.97 1046.28 1775.97 Q1052.07 1775.97 1055.45 1779.15 Q1058.83 1782.32 1058.83 1787.73 Q1058.83 1793.31 1055.36 1796.41 Q1051.89 1799.49 1045.57 1799.49 Q1043.39 1799.49 1041.12 1799.12 Q1038.88 1798.75 1036.47 1798.01 L1036.47 1793.31 Q1038.55 1794.45 1040.78 1795 Q1043 1795.56 1045.47 1795.56 Q1049.48 1795.56 1051.82 1793.45 Q1054.15 1791.34 1054.15 1787.73 Q1054.15 1784.12 1051.82 1782.02 Q1049.48 1779.91 1045.47 1779.91 Q1043.6 1779.91 1041.72 1780.33 Q1039.87 1780.74 1037.93 1781.62 L1037.93 1764.26 Z" fill="#000000" fill-rule="nonzero" fill-opacity="1" /><path clip-path="url(#clip450)" d="M1078.04 1767.34 Q1074.43 1767.34 1072.6 1770.9 Q1070.8 1774.45 1070.8 1781.58 Q1070.8 1788.68 1072.6 1792.25 Q1074.43 1795.79 1078.04 1795.79 Q1081.68 1795.79 1083.48 1792.25 Q1085.31 1788.68 1085.31 1781.58 Q1085.31 1774.45 1083.48 1770.9 Q1081.68 1767.34 1078.04 1767.34 M1078.04 1763.64 Q1083.85 1763.64 1086.91 1768.24 Q1089.99 1772.83 1089.99 1781.58 Q1089.99 1790.3 1086.91 1794.91 Q1083.85 1799.49 1078.04 1799.49 Q1072.23 1799.49 1069.15 1794.91 Q1066.1 1790.3 1066.1 1781.58 Q1066.1 1772.83 1069.15 1768.24 Q1072.23 1763.64 1078.04 1763.64 Z" fill="#000000" fill-rule="nonzero" fill-opacity="1" /><path clip-path="url(#clip450)" d="M1777.85 1794.89 L1785.49 1794.89 L1785.49 1768.52 L1777.18 1770.19 L1777.18 1765.93 L1785.44 1764.26 L1790.12 1764.26 L1790.12 1794.89 L1797.76 1794.89 L1797.76 1798.82 L1777.85 1798.82 L1777.85 1794.89 Z" fill="#000000" fill-rule="nonzero" fill-opacity="1" /><path clip-path="url(#clip450)" d="M1817.2 1767.34 Q1813.59 1767.34 1811.76 1770.9 Q1809.96 1774.45 1809.96 1781.58 Q1809.96 1788.68 1811.76 1792.25 Q1813.59 1795.79 1817.2 1795.79 Q1820.84 1795.79 1822.64 1792.25 Q1824.47 1788.68 1824.47 1781.58 Q1824.47 1774.45 1822.64 1770.9 Q1820.84 1767.34 1817.2 1767.34 M1817.2 1763.64 Q1823.01 1763.64 1826.07 1768.24 Q1829.15 1772.83 1829.15 1781.58 Q1829.15 1790.3 1826.07 1794.91 Q1823.01 1799.49 1817.2 1799.49 Q1811.39 1799.49 1808.31 1794.91 Q1805.26 1790.3 1805.26 1781.58 Q1805.26 1772.83 1808.31 1768.24 Q1811.39 1763.64 1817.2 1763.64 Z" fill="#000000" fill-rule="nonzero" fill-opacity="1" /><path clip-path="url(#clip450)" d="M1847.36 1767.34 Q1843.75 1767.34 1841.92 1770.9 Q1840.12 1774.45 1840.12 1781.58 Q1840.12 1788.68 1841.92 1792.25 Q1843.75 1795.79 1847.36 1795.79 Q1851 1795.79 1852.8 1792.25 Q1854.63 1788.68 1854.63 1781.58 Q1854.63 1774.45 1852.8 1770.9 Q1851 1767.34 1847.36 1767.34 M1847.36 1763.64 Q1853.17 1763.64 1856.23 1768.24 Q1859.31 1772.83 1859.31 1781.58 Q1859.31 1790.3 1856.23 1794.91 Q1853.17 1799.49 1847.36 1799.49 Q1841.55 1799.49 1838.47 1794.91 Q1835.42 1790.3 1835.42 1781.58 Q1835.42 1772.83 1838.47 1768.24 Q1841.55 1763.64 1847.36 1763.64 Z" fill="#000000" fill-rule="nonzero" fill-opacity="1" /><path clip-path="url(#clip450)" d="M2532.86 1794.89 L2540.5 1794.89 L2540.5 1768.52 L2532.19 1770.19 L2532.19 1765.93 L2540.46 1764.26 L2545.13 1764.26 L2545.13 1794.89 L2552.77 1794.89 L2552.77 1798.82 L2532.86 1798.82 L2532.86 1794.89 Z" fill="#000000" fill-rule="nonzero" fill-opacity="1" /><path clip-path="url(#clip450)" d="M2562.26 1764.26 L2580.62 1764.26 L2580.62 1768.2 L2566.54 1768.2 L2566.54 1776.67 Q2567.56 1776.32 2568.58 1776.16 Q2569.6 1775.97 2570.62 1775.97 Q2576.41 1775.97 2579.79 1779.15 Q2583.16 1782.32 2583.16 1787.73 Q2583.16 1793.31 2579.69 1796.41 Q2576.22 1799.49 2569.9 1799.49 Q2567.73 1799.49 2565.46 1799.12 Q2563.21 1798.75 2560.8 1798.01 L2560.8 1793.31 Q2562.89 1794.45 2565.11 1795 Q2567.33 1795.56 2569.81 1795.56 Q2573.81 1795.56 2576.15 1793.45 Q2578.49 1791.34 2578.49 1787.73 Q2578.49 1784.12 2576.15 1782.02 Q2573.81 1779.91 2569.81 1779.91 Q2567.93 1779.91 2566.06 1780.33 Q2564.21 1780.74 2562.26 1781.62 L2562.26 1764.26 Z" fill="#000000" fill-rule="nonzero" fill-opacity="1" /><path clip-path="url(#clip450)" d="M2602.38 1767.34 Q2598.77 1767.34 2596.94 1770.9 Q2595.13 1774.45 2595.13 1781.58 Q2595.13 1788.68 2596.94 1792.25 Q2598.77 1795.79 2602.38 1795.79 Q2606.01 1795.79 2607.82 1792.25 Q2609.65 1788.68 2609.65 1781.58 Q2609.65 1774.45 2607.82 1770.9 Q2606.01 1767.34 2602.38 1767.34 M2602.38 1763.64 Q2608.19 1763.64 2611.24 1768.24 Q2614.32 1772.83 2614.32 1781.58 Q2614.32 1790.3 2611.24 1794.91 Q2608.19 1799.49 2602.38 1799.49 Q2596.57 1799.49 2593.49 1794.91 Q2590.43 1790.3 2590.43 1781.58 Q2590.43 1772.83 2593.49 1768.24 Q2596.57 1763.64 2602.38 1763.64 Z" fill="#000000" fill-rule="nonzero" fill-opacity="1" /><path clip-path="url(#clip450)" d="M1319.13 1854.5 Q1321.32 1850.55 1324.38 1848.67 Q1327.43 1846.79 1331.57 1846.79 Q1337.14 1846.79 1340.16 1850.71 Q1343.19 1854.59 1343.19 1861.78 L1343.19 1883.3 L1337.3 1883.3 L1337.3 1861.98 Q1337.3 1856.85 1335.49 1854.37 Q1333.67 1851.89 1329.95 1851.89 Q1325.4 1851.89 1322.75 1854.91 Q1320.11 1857.93 1320.11 1863.15 L1320.11 1883.3 L1314.22 1883.3 L1314.22 1861.98 Q1314.22 1856.82 1312.41 1854.37 Q1310.6 1851.89 1306.81 1851.89 Q1302.32 1851.89 1299.68 1854.94 Q1297.04 1857.97 1297.04 1863.15 L1297.04 1883.3 L1291.15 1883.3 L1291.15 1847.65 L1297.04 1847.65 L1297.04 1853.19 Q1299.04 1849.91 1301.84 1848.35 Q1304.64 1846.79 1308.5 1846.79 Q1312.38 1846.79 1315.08 1848.77 Q1317.82 1850.74 1319.13 1854.5 Z" fill="#000000" fill-rule="nonzero" fill-opacity="1" /><path clip-path="url(#clip450)" d="M1371.07 1865.38 Q1363.97 1865.38 1361.24 1867 Q1358.5 1868.63 1358.5 1872.54 Q1358.5 1875.66 1360.53 1877.51 Q1362.6 1879.32 1366.14 1879.32 Q1371.01 1879.32 1373.93 1875.88 Q1376.89 1872.42 1376.89 1866.69 L1376.89 1865.38 L1371.07 1865.38 M1382.75 1862.96 L1382.75 1883.3 L1376.89 1883.3 L1376.89 1877.89 Q1374.89 1881.14 1371.9 1882.7 Q1368.91 1884.22 1364.58 1884.22 Q1359.1 1884.22 1355.86 1881.17 Q1352.64 1878.08 1352.64 1872.92 Q1352.64 1866.91 1356.65 1863.85 Q1360.69 1860.8 1368.68 1860.8 L1376.89 1860.8 L1376.89 1860.23 Q1376.89 1856.18 1374.22 1853.99 Q1371.58 1851.76 1366.77 1851.76 Q1363.72 1851.76 1360.82 1852.49 Q1357.92 1853.22 1355.25 1854.69 L1355.25 1849.28 Q1358.47 1848.03 1361.49 1847.43 Q1364.51 1846.79 1367.38 1846.79 Q1375.11 1846.79 1378.93 1850.8 Q1382.75 1854.81 1382.75 1862.96 Z" fill="#000000" fill-rule="nonzero" fill-opacity="1" /><path clip-path="url(#clip450)" d="M1417.54 1848.7 L1417.54 1854.24 Q1415.06 1852.97 1412.38 1852.33 Q1409.71 1851.7 1406.85 1851.7 Q1402.48 1851.7 1400.29 1853.03 Q1398.12 1854.37 1398.12 1857.04 Q1398.12 1859.08 1399.68 1860.26 Q1401.24 1861.4 1405.95 1862.45 L1407.96 1862.9 Q1414.2 1864.24 1416.81 1866.69 Q1419.45 1869.11 1419.45 1873.47 Q1419.45 1878.43 1415.5 1881.33 Q1411.59 1884.22 1404.71 1884.22 Q1401.85 1884.22 1398.73 1883.65 Q1395.64 1883.11 1392.2 1882 L1392.2 1875.95 Q1395.45 1877.64 1398.6 1878.49 Q1401.75 1879.32 1404.84 1879.32 Q1408.98 1879.32 1411.21 1877.92 Q1413.43 1876.49 1413.43 1873.91 Q1413.43 1871.52 1411.81 1870.25 Q1410.22 1868.98 1404.78 1867.8 L1402.74 1867.32 Q1397.3 1866.18 1394.88 1863.82 Q1392.46 1861.43 1392.46 1857.3 Q1392.46 1852.27 1396.02 1849.53 Q1399.59 1846.79 1406.15 1846.79 Q1409.39 1846.79 1412.26 1847.27 Q1415.12 1847.75 1417.54 1848.7 Z" fill="#000000" fill-rule="nonzero" fill-opacity="1" /><path clip-path="url(#clip450)" d="M1451.5 1848.7 L1451.5 1854.24 Q1449.02 1852.97 1446.34 1852.33 Q1443.67 1851.7 1440.81 1851.7 Q1436.45 1851.7 1434.25 1853.03 Q1432.09 1854.37 1432.09 1857.04 Q1432.09 1859.08 1433.64 1860.26 Q1435.2 1861.4 1439.92 1862.45 L1441.92 1862.9 Q1448.16 1864.24 1450.77 1866.69 Q1453.41 1869.11 1453.41 1873.47 Q1453.41 1878.43 1449.46 1881.33 Q1445.55 1884.22 1438.67 1884.22 Q1435.81 1884.22 1432.69 1883.65 Q1429.6 1883.11 1426.17 1882 L1426.17 1875.95 Q1429.41 1877.64 1432.56 1878.49 Q1435.71 1879.32 1438.8 1879.32 Q1442.94 1879.32 1445.17 1877.92 Q1447.39 1876.49 1447.39 1873.91 Q1447.39 1871.52 1445.77 1870.25 Q1444.18 1868.98 1438.74 1867.8 L1436.7 1867.32 Q1431.26 1866.18 1428.84 1863.82 Q1426.42 1861.43 1426.42 1857.3 Q1426.42 1852.27 1429.98 1849.53 Q1433.55 1846.79 1440.11 1846.79 Q1443.35 1846.79 1446.22 1847.27 Q1449.08 1847.75 1451.5 1848.7 Z" fill="#000000" fill-rule="nonzero" fill-opacity="1" /><path clip-path="url(#clip450)" d="M1497.52 1833.84 Q1493.26 1841.16 1491.19 1848.32 Q1489.12 1855.48 1489.12 1862.84 Q1489.12 1870.19 1491.19 1877.41 Q1493.29 1884.61 1497.52 1891.89 L1492.43 1891.89 Q1487.66 1884.41 1485.27 1877.19 Q1482.92 1869.96 1482.92 1862.84 Q1482.92 1855.74 1485.27 1848.54 Q1487.63 1841.35 1492.43 1833.84 L1497.52 1833.84 Z" fill="#000000" fill-rule="nonzero" fill-opacity="1" /><path clip-path="url(#clip450)" d="M1508.28 1896.86 L1508.28 1847.65 L1514.14 1847.65 L1514.14 1869.81 Q1514.14 1874.42 1516.34 1876.78 Q1518.53 1879.13 1522.83 1879.13 Q1527.54 1879.13 1529.89 1876.46 Q1532.28 1873.78 1532.28 1868.44 L1532.28 1847.65 L1538.14 1847.65 L1538.14 1875.09 Q1538.14 1877 1538.68 1877.92 Q1539.25 1878.81 1540.43 1878.81 Q1540.72 1878.81 1541.23 1878.65 Q1541.73 1878.46 1542.63 1878.08 L1542.63 1882.79 Q1541.32 1883.52 1540.14 1883.87 Q1539 1884.22 1537.88 1884.22 Q1535.69 1884.22 1534.38 1882.98 Q1533.08 1881.74 1532.6 1879.2 Q1531.01 1881.71 1528.68 1882.98 Q1526.39 1884.22 1523.27 1884.22 Q1520.03 1884.22 1517.74 1882.98 Q1515.48 1881.74 1514.14 1879.26 L1514.14 1896.86 L1508.28 1896.86 Z" fill="#000000" fill-rule="nonzero" fill-opacity="1" /><path clip-path="url(#clip450)" d="M1573.82 1865.06 Q1573.82 1858.7 1571.18 1855.2 Q1568.57 1851.7 1563.82 1851.7 Q1559.11 1851.7 1556.47 1855.2 Q1553.86 1858.7 1553.86 1865.06 Q1553.86 1871.4 1556.47 1874.9 Q1559.11 1878.4 1563.82 1878.4 Q1568.57 1878.4 1571.18 1874.9 Q1573.82 1871.4 1573.82 1865.06 M1579.67 1878.88 Q1579.67 1887.98 1575.63 1892.4 Q1571.59 1896.86 1563.25 1896.86 Q1560.16 1896.86 1557.43 1896.38 Q1554.69 1895.94 1552.11 1894.98 L1552.11 1889.28 Q1554.69 1890.69 1557.2 1891.35 Q1559.72 1892.02 1562.33 1892.02 Q1568.09 1892.02 1570.95 1889 Q1573.82 1886.01 1573.82 1879.93 L1573.82 1877.03 Q1572 1880.18 1569.17 1881.74 Q1566.34 1883.3 1562.39 1883.3 Q1555.83 1883.3 1551.82 1878.3 Q1547.81 1873.31 1547.81 1865.06 Q1547.81 1856.79 1551.82 1851.79 Q1555.83 1846.79 1562.39 1846.79 Q1566.34 1846.79 1569.17 1848.35 Q1572 1849.91 1573.82 1853.06 L1573.82 1847.65 L1579.67 1847.65 L1579.67 1878.88 Z" fill="#000000" fill-rule="nonzero" fill-opacity="1" /><path clip-path="url(#clip450)" d="M1590.81 1833.84 L1595.91 1833.84 Q1600.68 1841.35 1603.04 1848.54 Q1605.42 1855.74 1605.42 1862.84 Q1605.42 1869.96 1603.04 1877.19 Q1600.68 1884.41 1595.91 1891.89 L1590.81 1891.89 Q1595.05 1884.61 1597.12 1877.41 Q1599.22 1870.19 1599.22 1862.84 Q1599.22 1855.48 1597.12 1848.32 Q1595.05 1841.16 1590.81 1833.84 Z" fill="#000000" fill-rule="nonzero" fill-opacity="1" /><polyline clip-path="url(#clip450)" style="stroke:#000000; stroke-linecap:round; stroke-linejoin:round; stroke-width:4; stroke-opacity:1; fill:none" points="255.816,1734.12 255.816,47.2441 "/>
<polyline clip-path="url(#clip450)" style="stroke:#000000; stroke-linecap:round; stroke-linejoin:round; stroke-width:4; stroke-opacity:1; fill:none" points="255.816,1692.82 274.714,1692.82 "/>
<polyline clip-path="url(#clip450)" style="stroke:#000000; stroke-linecap:round; stroke-linejoin:round; stroke-width:4; stroke-opacity:1; fill:none" points="255.816,1236.84 274.714,1236.84 "/>
<polyline clip-path="url(#clip450)" style="stroke:#000000; stroke-linecap:round; stroke-linejoin:round; stroke-width:4; stroke-opacity:1; fill:none" points="255.816,780.867 274.714,780.867 "/>
<polyline clip-path="url(#clip450)" style="stroke:#000000; stroke-linecap:round; stroke-linejoin:round; stroke-width:4; stroke-opacity:1; fill:none" points="255.816,324.892 274.714,324.892 "/>
<path clip-path="url(#clip450)" d="M128.159 1678.61 Q124.548 1678.61 122.719 1682.18 Q120.913 1685.72 120.913 1692.85 Q120.913 1699.96 122.719 1703.52 Q124.548 1707.06 128.159 1707.06 Q131.793 1707.06 133.599 1703.52 Q135.427 1699.96 135.427 1692.85 Q135.427 1685.72 133.599 1682.18 Q131.793 1678.61 128.159 1678.61 M128.159 1674.91 Q133.969 1674.91 137.025 1679.52 Q140.103 1684.1 140.103 1692.85 Q140.103 1701.58 137.025 1706.18 Q133.969 1710.77 128.159 1710.77 Q122.349 1710.77 119.27 1706.18 Q116.214 1701.58 116.214 1692.85 Q116.214 1684.1 119.27 1679.52 Q122.349 1674.91 128.159 1674.91 Z" fill="#000000" fill-rule="nonzero" fill-opacity="1" /><path clip-path="url(#clip450)" d="M148.321 1704.22 L153.205 1704.22 L153.205 1710.1 L148.321 1710.1 L148.321 1704.22 Z" fill="#000000" fill-rule="nonzero" fill-opacity="1" /><path clip-path="url(#clip450)" d="M173.39 1678.61 Q169.779 1678.61 167.95 1682.18 Q166.145 1685.72 166.145 1692.85 Q166.145 1699.96 167.95 1703.52 Q169.779 1707.06 173.39 1707.06 Q177.024 1707.06 178.83 1703.52 Q180.659 1699.96 180.659 1692.85 Q180.659 1685.72 178.83 1682.18 Q177.024 1678.61 173.39 1678.61 M173.39 1674.91 Q179.2 1674.91 182.256 1679.52 Q185.334 1684.1 185.334 1692.85 Q185.334 1701.58 182.256 1706.18 Q179.2 1710.77 173.39 1710.77 Q167.58 1710.77 164.501 1706.18 Q161.446 1701.58 161.446 1692.85 Q161.446 1684.1 164.501 1679.52 Q167.58 1674.91 173.39 1674.91 Z" fill="#000000" fill-rule="nonzero" fill-opacity="1" /><path clip-path="url(#clip450)" d="M203.552 1678.61 Q199.941 1678.61 198.112 1682.18 Q196.307 1685.72 196.307 1692.85 Q196.307 1699.96 198.112 1703.52 Q199.941 1707.06 203.552 1707.06 Q207.186 1707.06 208.992 1703.52 Q210.82 1699.96 210.82 1692.85 Q210.82 1685.72 208.992 1682.18 Q207.186 1678.61 203.552 1678.61 M203.552 1674.91 Q209.362 1674.91 212.418 1679.52 Q215.496 1684.1 215.496 1692.85 Q215.496 1701.58 212.418 1706.18 Q209.362 1710.77 203.552 1710.77 Q197.742 1710.77 194.663 1706.18 Q191.608 1701.58 191.608 1692.85 Q191.608 1684.1 194.663 1679.52 Q197.742 1674.91 203.552 1674.91 Z" fill="#000000" fill-rule="nonzero" fill-opacity="1" /><path clip-path="url(#clip450)" d="M129.154 1222.64 Q125.543 1222.64 123.714 1226.2 Q121.909 1229.75 121.909 1236.88 Q121.909 1243.98 123.714 1247.55 Q125.543 1251.09 129.154 1251.09 Q132.788 1251.09 134.594 1247.55 Q136.423 1243.98 136.423 1236.88 Q136.423 1229.75 134.594 1226.2 Q132.788 1222.64 129.154 1222.64 M129.154 1218.94 Q134.964 1218.94 138.02 1223.54 Q141.099 1228.13 141.099 1236.88 Q141.099 1245.6 138.02 1250.21 Q134.964 1254.79 129.154 1254.79 Q123.344 1254.79 120.265 1250.21 Q117.21 1245.6 117.21 1236.88 Q117.21 1228.13 120.265 1223.54 Q123.344 1218.94 129.154 1218.94 Z" fill="#000000" fill-rule="nonzero" fill-opacity="1" /><path clip-path="url(#clip450)" d="M149.316 1248.24 L154.2 1248.24 L154.2 1254.12 L149.316 1254.12 L149.316 1248.24 Z" fill="#000000" fill-rule="nonzero" fill-opacity="1" /><path clip-path="url(#clip450)" d="M174.385 1222.64 Q170.774 1222.64 168.946 1226.2 Q167.14 1229.75 167.14 1236.88 Q167.14 1243.98 168.946 1247.55 Q170.774 1251.09 174.385 1251.09 Q178.02 1251.09 179.825 1247.55 Q181.654 1243.98 181.654 1236.88 Q181.654 1229.75 179.825 1226.2 Q178.02 1222.64 174.385 1222.64 M174.385 1218.94 Q180.196 1218.94 183.251 1223.54 Q186.33 1228.13 186.33 1236.88 Q186.33 1245.6 183.251 1250.21 Q180.196 1254.79 174.385 1254.79 Q168.575 1254.79 165.497 1250.21 Q162.441 1245.6 162.441 1236.88 Q162.441 1228.13 165.497 1223.54 Q168.575 1218.94 174.385 1218.94 Z" fill="#000000" fill-rule="nonzero" fill-opacity="1" /><path clip-path="url(#clip450)" d="M194.594 1219.56 L212.95 1219.56 L212.95 1223.5 L198.876 1223.5 L198.876 1231.97 Q199.895 1231.62 200.913 1231.46 Q201.932 1231.27 202.95 1231.27 Q208.737 1231.27 212.117 1234.45 Q215.496 1237.62 215.496 1243.03 Q215.496 1248.61 212.024 1251.71 Q208.552 1254.79 202.233 1254.79 Q200.057 1254.79 197.788 1254.42 Q195.543 1254.05 193.135 1253.31 L193.135 1248.61 Q195.219 1249.75 197.441 1250.3 Q199.663 1250.86 202.14 1250.86 Q206.145 1250.86 208.482 1248.75 Q210.82 1246.64 210.82 1243.03 Q210.82 1239.42 208.482 1237.32 Q206.145 1235.21 202.14 1235.21 Q200.265 1235.21 198.39 1235.63 Q196.538 1236.04 194.594 1236.92 L194.594 1219.56 Z" fill="#000000" fill-rule="nonzero" fill-opacity="1" /><path clip-path="url(#clip450)" d="M128.159 766.665 Q124.548 766.665 122.719 770.23 Q120.913 773.772 120.913 780.901 Q120.913 788.008 122.719 791.573 Q124.548 795.114 128.159 795.114 Q131.793 795.114 133.599 791.573 Q135.427 788.008 135.427 780.901 Q135.427 773.772 133.599 770.23 Q131.793 766.665 128.159 766.665 M128.159 762.962 Q133.969 762.962 137.025 767.568 Q140.103 772.151 140.103 780.901 Q140.103 789.628 137.025 794.235 Q133.969 798.818 128.159 798.818 Q122.349 798.818 119.27 794.235 Q116.214 789.628 116.214 780.901 Q116.214 772.151 119.27 767.568 Q122.349 762.962 128.159 762.962 Z" fill="#000000" fill-rule="nonzero" fill-opacity="1" /><path clip-path="url(#clip450)" d="M148.321 792.267 L153.205 792.267 L153.205 798.147 L148.321 798.147 L148.321 792.267 Z" fill="#000000" fill-rule="nonzero" fill-opacity="1" /><path clip-path="url(#clip450)" d="M164.2 794.212 L171.839 794.212 L171.839 767.846 L163.529 769.513 L163.529 765.253 L171.793 763.587 L176.469 763.587 L176.469 794.212 L184.108 794.212 L184.108 798.147 L164.2 798.147 L164.2 794.212 Z" fill="#000000" fill-rule="nonzero" fill-opacity="1" /><path clip-path="url(#clip450)" d="M203.552 766.665 Q199.941 766.665 198.112 770.23 Q196.307 773.772 196.307 780.901 Q196.307 788.008 198.112 791.573 Q199.941 795.114 203.552 795.114 Q207.186 795.114 208.992 791.573 Q210.82 788.008 210.82 780.901 Q210.82 773.772 208.992 770.23 Q207.186 766.665 203.552 766.665 M203.552 762.962 Q209.362 762.962 212.418 767.568 Q215.496 772.151 215.496 780.901 Q215.496 789.628 212.418 794.235 Q209.362 798.818 203.552 798.818 Q197.742 798.818 194.663 794.235 Q191.608 789.628 191.608 780.901 Q191.608 772.151 194.663 767.568 Q197.742 762.962 203.552 762.962 Z" fill="#000000" fill-rule="nonzero" fill-opacity="1" /><path clip-path="url(#clip450)" d="M129.154 310.691 Q125.543 310.691 123.714 314.256 Q121.909 317.797 121.909 324.927 Q121.909 332.033 123.714 335.598 Q125.543 339.14 129.154 339.14 Q132.788 339.14 134.594 335.598 Q136.423 332.033 136.423 324.927 Q136.423 317.797 134.594 314.256 Q132.788 310.691 129.154 310.691 M129.154 306.987 Q134.964 306.987 138.02 311.594 Q141.099 316.177 141.099 324.927 Q141.099 333.654 138.02 338.26 Q134.964 342.844 129.154 342.844 Q123.344 342.844 120.265 338.26 Q117.21 333.654 117.21 324.927 Q117.21 316.177 120.265 311.594 Q123.344 306.987 129.154 306.987 Z" fill="#000000" fill-rule="nonzero" fill-opacity="1" /><path clip-path="url(#clip450)" d="M149.316 336.293 L154.2 336.293 L154.2 342.172 L149.316 342.172 L149.316 336.293 Z" fill="#000000" fill-rule="nonzero" fill-opacity="1" /><path clip-path="url(#clip450)" d="M165.196 338.237 L172.835 338.237 L172.835 311.871 L164.524 313.538 L164.524 309.279 L172.788 307.612 L177.464 307.612 L177.464 338.237 L185.103 338.237 L185.103 342.172 L165.196 342.172 L165.196 338.237 Z" fill="#000000" fill-rule="nonzero" fill-opacity="1" /><path clip-path="url(#clip450)" d="M194.594 307.612 L212.95 307.612 L212.95 311.547 L198.876 311.547 L198.876 320.02 Q199.895 319.672 200.913 319.51 Q201.932 319.325 202.95 319.325 Q208.737 319.325 212.117 322.496 Q215.496 325.668 215.496 331.084 Q215.496 336.663 212.024 339.765 Q208.552 342.844 202.233 342.844 Q200.057 342.844 197.788 342.473 Q195.543 342.103 193.135 341.362 L193.135 336.663 Q195.219 337.797 197.441 338.353 Q199.663 338.908 202.14 338.908 Q206.145 338.908 208.482 336.802 Q210.82 334.695 210.82 331.084 Q210.82 327.473 208.482 325.367 Q206.145 323.26 202.14 323.26 Q200.265 323.26 198.39 323.677 Q196.538 324.094 194.594 324.973 L194.594 307.612 Z" fill="#000000" fill-rule="nonzero" fill-opacity="1" /><path clip-path="url(#clip450)" d="M27.0408 1181.8 L32.579 1181.8 Q31.3059 1184.28 30.6693 1186.96 Q30.0327 1189.63 30.0327 1192.49 Q30.0327 1196.86 31.3695 1199.05 Q32.7063 1201.22 35.3799 1201.22 Q37.4169 1201.22 38.5946 1199.66 Q39.7404 1198.1 40.7908 1193.39 L41.2364 1191.38 Q42.5732 1185.14 45.0239 1182.53 Q47.4429 1179.89 51.8034 1179.89 Q56.7687 1179.89 59.6651 1183.84 Q62.5615 1187.75 62.5615 1194.63 Q62.5615 1197.49 61.9886 1200.61 Q61.4475 1203.7 60.3335 1207.14 L54.2861 1207.14 Q55.973 1203.89 56.8323 1200.74 Q57.6599 1197.59 57.6599 1194.5 Q57.6599 1190.36 56.2594 1188.13 Q54.8271 1185.91 52.249 1185.91 Q49.8619 1185.91 48.5887 1187.53 Q47.3156 1189.12 46.1379 1194.56 L45.6605 1196.6 Q44.5147 1202.04 42.1594 1204.46 Q39.7722 1206.88 35.6345 1206.88 Q30.6056 1206.88 27.8684 1203.32 Q25.1311 1199.75 25.1311 1193.19 Q25.1311 1189.95 25.6085 1187.08 Q26.086 1184.22 27.0408 1181.8 Z" fill="#000000" fill-rule="nonzero" fill-opacity="1" /><path clip-path="url(#clip450)" d="M43.719 1154.36 Q43.719 1161.46 45.3422 1164.2 Q46.9655 1166.94 50.8804 1166.94 Q53.9996 1166.94 55.8457 1164.9 Q57.6599 1162.83 57.6599 1159.3 Q57.6599 1154.43 54.2224 1151.5 Q50.7531 1148.54 45.0239 1148.54 L43.719 1148.54 L43.719 1154.36 M41.3 1142.68 L61.6384 1142.68 L61.6384 1148.54 L56.2276 1148.54 Q59.4741 1150.54 61.0337 1153.54 Q62.5615 1156.53 62.5615 1160.86 Q62.5615 1166.33 59.5059 1169.58 Q56.4186 1172.79 51.2623 1172.79 Q45.2467 1172.79 42.1912 1168.78 Q39.1357 1164.74 39.1357 1156.75 L39.1357 1148.54 L38.5628 1148.54 Q34.5205 1148.54 32.3244 1151.21 Q30.0964 1153.85 30.0964 1158.66 Q30.0964 1161.72 30.8284 1164.61 Q31.5605 1167.51 33.0246 1170.18 L27.6137 1170.18 Q26.3724 1166.97 25.7677 1163.94 Q25.1311 1160.92 25.1311 1158.06 Q25.1311 1150.32 29.1415 1146.5 Q33.1519 1142.68 41.3 1142.68 Z" fill="#000000" fill-rule="nonzero" fill-opacity="1" /><path clip-path="url(#clip450)" d="M32.8336 1102.87 Q28.8869 1100.67 27.009 1097.61 Q25.1311 1094.56 25.1311 1090.42 Q25.1311 1084.85 29.046 1081.83 Q32.9291 1078.8 40.1224 1078.8 L61.6384 1078.8 L61.6384 1084.69 L40.3133 1084.69 Q35.1889 1084.69 32.7063 1086.51 Q30.2237 1088.32 30.2237 1092.04 Q30.2237 1096.6 33.2474 1099.24 Q36.2711 1101.88 41.491 1101.88 L61.6384 1101.88 L61.6384 1107.77 L40.3133 1107.77 Q35.1571 1107.77 32.7063 1109.58 Q30.2237 1111.4 30.2237 1115.18 Q30.2237 1119.67 33.2792 1122.31 Q36.3029 1124.95 41.491 1124.95 L61.6384 1124.95 L61.6384 1130.84 L25.9905 1130.84 L25.9905 1124.95 L31.5287 1124.95 Q28.2503 1122.95 26.6907 1120.15 Q25.1311 1117.35 25.1311 1113.5 Q25.1311 1109.61 27.1045 1106.91 Q29.0779 1104.17 32.8336 1102.87 Z" fill="#000000" fill-rule="nonzero" fill-opacity="1" /><path clip-path="url(#clip450)" d="M56.2912 1061.46 L75.1974 1061.46 L75.1974 1067.34 L25.9905 1067.34 L25.9905 1061.46 L31.4013 1061.46 Q28.2185 1059.61 26.6907 1056.81 Q25.1311 1053.98 25.1311 1050.06 Q25.1311 1043.57 30.2873 1039.53 Q35.4436 1035.45 43.8463 1035.45 Q52.249 1035.45 57.4052 1039.53 Q62.5615 1043.57 62.5615 1050.06 Q62.5615 1053.98 61.0337 1056.81 Q59.4741 1059.61 56.2912 1061.46 M43.8463 1041.53 Q37.3851 1041.53 33.7248 1044.21 Q30.0327 1046.85 30.0327 1051.49 Q30.0327 1056.14 33.7248 1058.81 Q37.3851 1061.46 43.8463 1061.46 Q50.3075 1061.46 53.9996 1058.81 Q57.6599 1056.14 57.6599 1051.49 Q57.6599 1046.85 53.9996 1044.21 Q50.3075 1041.53 43.8463 1041.53 Z" fill="#000000" fill-rule="nonzero" fill-opacity="1" /><path clip-path="url(#clip450)" d="M12.1132 1025.74 L12.1132 1019.89 L61.6384 1019.89 L61.6384 1025.74 L12.1132 1025.74 Z" fill="#000000" fill-rule="nonzero" fill-opacity="1" /><path clip-path="url(#clip450)" d="M42.3504 977.143 L45.2149 977.143 L45.2149 1004.07 Q51.2623 1003.69 54.4452 1000.44 Q57.5962 997.163 57.5962 991.338 Q57.5962 987.964 56.7687 984.813 Q55.9411 981.631 54.2861 978.511 L59.8242 978.511 Q61.161 981.662 61.8612 984.973 Q62.5615 988.283 62.5615 991.688 Q62.5615 1000.22 57.5962 1005.22 Q52.631 1010.18 44.1646 1010.18 Q35.4117 1010.18 30.2873 1005.47 Q25.1311 1000.73 25.1311 992.707 Q25.1311 985.514 29.7781 981.344 Q34.3932 977.143 42.3504 977.143 M40.6316 982.999 Q35.8255 983.063 32.9609 985.705 Q30.0964 988.315 30.0964 992.643 Q30.0964 997.545 32.8654 1000.5 Q35.6345 1003.43 40.6634 1003.88 L40.6316 982.999 Z" fill="#000000" fill-rule="nonzero" fill-opacity="1" /><path clip-path="url(#clip450)" d="M40.1224 917.178 L61.6384 917.178 L61.6384 923.034 L40.3133 923.034 Q35.2526 923.034 32.7381 925.008 Q30.2237 926.981 30.2237 930.928 Q30.2237 935.67 33.2474 938.407 Q36.2711 941.145 41.491 941.145 L61.6384 941.145 L61.6384 947.033 L12.1132 947.033 L12.1132 941.145 L31.5287 941.145 Q28.314 939.044 26.7225 936.211 Q25.1311 933.347 25.1311 929.623 Q25.1311 923.48 28.9505 920.329 Q32.7381 917.178 40.1224 917.178 Z" fill="#000000" fill-rule="nonzero" fill-opacity="1" /><path clip-path="url(#clip450)" d="M42.3504 875.005 L45.2149 875.005 L45.2149 901.932 Q51.2623 901.55 54.4452 898.303 Q57.5962 895.025 57.5962 889.201 Q57.5962 885.827 56.7687 882.676 Q55.9411 879.493 54.2861 876.374 L59.8242 876.374 Q61.161 879.525 61.8612 882.835 Q62.5615 886.145 62.5615 889.551 Q62.5615 898.081 57.5962 903.078 Q52.631 908.043 44.1646 908.043 Q35.4117 908.043 30.2873 903.332 Q25.1311 898.59 25.1311 890.569 Q25.1311 883.376 29.7781 879.206 Q34.3932 875.005 42.3504 875.005 M40.6316 880.861 Q35.8255 880.925 32.9609 883.567 Q30.0964 886.177 30.0964 890.505 Q30.0964 895.407 32.8654 898.367 Q35.6345 901.295 40.6634 901.741 L40.6316 880.861 Z" fill="#000000" fill-rule="nonzero" fill-opacity="1" /><path clip-path="url(#clip450)" d="M25.9905 865.393 L25.9905 859.536 L61.6384 859.536 L61.6384 865.393 L25.9905 865.393 M12.1132 865.393 L12.1132 859.536 L19.5293 859.536 L19.5293 865.393 L12.1132 865.393 Z" fill="#000000" fill-rule="nonzero" fill-opacity="1" /><path clip-path="url(#clip450)" d="M43.4007 823.825 Q37.035 823.825 33.5338 826.466 Q30.0327 829.076 30.0327 833.819 Q30.0327 838.529 33.5338 841.171 Q37.035 843.781 43.4007 843.781 Q49.7346 843.781 53.2357 841.171 Q56.7368 838.529 56.7368 833.819 Q56.7368 829.076 53.2357 826.466 Q49.7346 823.825 43.4007 823.825 M57.2143 817.968 Q66.3172 817.968 70.7414 822.01 Q75.1974 826.053 75.1974 834.392 Q75.1974 837.479 74.72 840.216 Q74.2744 842.954 73.3195 845.532 L67.6222 845.532 Q69.0227 842.954 69.6911 840.439 Q70.3595 837.925 70.3595 835.315 Q70.3595 829.554 67.3358 826.689 Q64.3439 823.825 58.2646 823.825 L55.3682 823.825 Q58.5192 825.639 60.0788 828.472 Q61.6384 831.304 61.6384 835.251 Q61.6384 841.808 56.6414 845.818 Q51.6443 849.829 43.4007 849.829 Q35.1253 849.829 30.1282 845.818 Q25.1311 841.808 25.1311 835.251 Q25.1311 831.304 26.6907 828.472 Q28.2503 825.639 31.4013 823.825 L25.9905 823.825 L25.9905 817.968 L57.2143 817.968 Z" fill="#000000" fill-rule="nonzero" fill-opacity="1" /><path clip-path="url(#clip450)" d="M40.1224 776.273 L61.6384 776.273 L61.6384 782.129 L40.3133 782.129 Q35.2526 782.129 32.7381 784.103 Q30.2237 786.076 30.2237 790.023 Q30.2237 794.765 33.2474 797.503 Q36.2711 800.24 41.491 800.24 L61.6384 800.24 L61.6384 806.128 L12.1132 806.128 L12.1132 800.24 L31.5287 800.24 Q28.314 798.139 26.7225 795.306 Q25.1311 792.442 25.1311 788.718 Q25.1311 782.575 28.9505 779.424 Q32.7381 776.273 40.1224 776.273 Z" fill="#000000" fill-rule="nonzero" fill-opacity="1" /><path clip-path="url(#clip450)" d="M15.869 758.799 L25.9905 758.799 L25.9905 746.736 L30.542 746.736 L30.542 758.799 L49.8937 758.799 Q54.2542 758.799 55.4955 757.621 Q56.7368 756.412 56.7368 752.752 L56.7368 746.736 L61.6384 746.736 L61.6384 752.752 Q61.6384 759.531 59.124 762.109 Q56.5777 764.687 49.8937 764.687 L30.542 764.687 L30.542 768.984 L25.9905 768.984 L25.9905 764.687 L15.869 764.687 L15.869 758.799 Z" fill="#000000" fill-rule="nonzero" fill-opacity="1" /><path clip-path="url(#clip450)" d="M12.1769 704.245 Q19.4975 708.51 26.6589 710.579 Q33.8203 712.648 41.1727 712.648 Q48.5251 712.648 55.7502 710.579 Q62.9434 708.478 70.2321 704.245 L70.2321 709.337 Q62.7524 714.112 55.5274 716.499 Q48.3023 718.854 41.1727 718.854 Q34.0749 718.854 26.8817 716.499 Q19.6884 714.144 12.1769 709.337 L12.1769 704.245 Z" fill="#000000" fill-rule="nonzero" fill-opacity="1" /><path clip-path="url(#clip450)" d="M75.1974 693.487 L25.9905 693.487 L25.9905 687.63 L48.1431 687.63 Q52.7583 687.63 55.1136 685.434 Q57.4689 683.238 57.4689 678.941 Q57.4689 674.231 54.7953 671.875 Q52.1217 669.488 46.7745 669.488 L25.9905 669.488 L25.9905 663.632 L53.4267 663.632 Q55.3364 663.632 56.2594 663.091 Q57.1506 662.518 57.1506 661.34 Q57.1506 661.054 56.9915 660.544 Q56.8005 660.035 56.4186 659.144 L61.1292 659.144 Q61.8612 660.449 62.2114 661.627 Q62.5615 662.772 62.5615 663.886 Q62.5615 666.082 61.3202 667.387 Q60.0788 668.692 57.5326 669.17 Q60.047 670.761 61.3202 673.085 Q62.5615 675.376 62.5615 678.496 Q62.5615 681.742 61.3202 684.034 Q60.0788 686.294 57.5962 687.63 L75.1974 687.63 L75.1974 693.487 Z" fill="#000000" fill-rule="nonzero" fill-opacity="1" /><path clip-path="url(#clip450)" d="M32.8336 623.655 Q28.8869 621.459 27.009 618.403 Q25.1311 615.348 25.1311 611.21 Q25.1311 605.64 29.046 602.616 Q32.9291 599.593 40.1224 599.593 L61.6384 599.593 L61.6384 605.481 L40.3133 605.481 Q35.1889 605.481 32.7063 607.295 Q30.2237 609.109 30.2237 612.833 Q30.2237 617.385 33.2474 620.027 Q36.2711 622.668 41.491 622.668 L61.6384 622.668 L61.6384 628.557 L40.3133 628.557 Q35.1571 628.557 32.7063 630.371 Q30.2237 632.185 30.2237 635.973 Q30.2237 640.461 33.2792 643.102 Q36.3029 645.744 41.491 645.744 L61.6384 645.744 L61.6384 651.632 L25.9905 651.632 L25.9905 645.744 L31.5287 645.744 Q28.2503 643.739 26.6907 640.938 Q25.1311 638.137 25.1311 634.286 Q25.1311 630.403 27.1045 627.697 Q29.0779 624.96 32.8336 623.655 Z" fill="#000000" fill-rule="nonzero" fill-opacity="1" /><path clip-path="url(#clip450)" d="M12.1769 588.835 L12.1769 583.742 Q19.6884 578.968 26.8817 576.612 Q34.0749 574.225 41.1727 574.225 Q48.3023 574.225 55.5274 576.612 Q62.7524 578.968 70.2321 583.742 L70.2321 588.835 Q62.9434 584.601 55.7502 582.533 Q48.5251 580.432 41.1727 580.432 Q33.8203 580.432 26.6589 582.533 Q19.4975 584.601 12.1769 588.835 Z" fill="#000000" fill-rule="nonzero" fill-opacity="1" /><polyline clip-path="url(#clip452)" style="stroke:#009af9; stroke-linecap:round; stroke-linejoin:round; stroke-width:4; stroke-opacity:1; fill:none" points="323.315,1686.38 338.415,1679.93 353.515,1673.49 368.615,1667.05 383.716,1660.61 398.816,1654.17 413.916,1647.73 429.017,1641.29 444.117,1634.85 459.217,1628.41 474.317,1621.97 489.418,1615.53 504.518,1609.09 519.618,1602.65 534.719,1596.21 549.819,1589.77 564.919,1583.33 580.02,1576.89 595.12,1570.45 610.22,1564.01 625.32,1557.57 640.421,1551.13 655.521,1544.69 670.621,1538.25 685.722,1531.81 700.822,1525.37 715.922,1518.93 731.022,1512.49 746.123,1506.05 761.223,1499.61 776.323,1493.17 791.424,1486.73 806.524,1480.29 821.624,1473.84 836.724,1467.4 851.825,1460.96 866.925,1454.52 882.025,1448.08 897.126,1441.64 912.226,1435.2 927.326,1428.76 942.426,1422.32 957.527,1415.88 972.627,1409.44 987.727,1403 1002.83,1396.56 1017.93,1390.12 1033.03,1383.68 1048.13,1377.24 1063.23,1370.8 1078.33,1364.36 1093.43,1357.92 1108.53,1351.48 1123.63,1345.04 1138.73,1338.6 1153.83,1332.16 1168.93,1325.72 1184.03,1319.28 1199.13,1312.84 1214.23,1306.4 1229.33,1299.96 1244.43,1293.52 1259.53,1287.08 1274.63,1280.64 1289.73,1274.19 1304.83,1267.75 1319.93,1261.31 1335.03,1254.87 1350.13,1248.43 1365.23,1241.99 1380.33,1235.55 1395.44,1229.11 1410.54,1222.67 1425.64,1216.23 1440.74,1209.79 1455.84,1203.35 1470.94,1196.91 1486.04,1190.47 1501.14,1184.03 1516.24,1177.59 1531.34,1171.15 1546.44,1164.71 1561.54,1158.27 1576.64,1151.83 1591.74,1145.39 1606.84,1138.95 1621.94,1132.51 1637.04,1126.07 1652.14,1119.63 1667.24,1113.19 1682.34,1106.75 1697.44,1100.31 1712.54,1093.87 1727.64,1087.43 1742.74,1080.99 1757.84,1074.55 1772.94,1068.1 1788.04,1061.66 1803.14,1055.22 1818.24,1048.78 1833.34,1042.34 1848.44,1035.9 1863.54,1029.46 1878.64,1023.02 1893.74,1016.58 1908.84,1010.14 1923.95,1003.7 1939.05,997.261 1954.15,990.821 1969.25,984.381 1984.35,977.94 1999.45,971.5 2014.55,965.06 2029.65,958.619 2044.75,952.179 2059.85,945.739 2074.95,939.299 2090.05,932.858 2105.15,926.418 2120.25,919.978 2135.35,913.537 2150.45,907.097 2165.55,900.657 2180.65,894.216 2195.75,887.776 2210.85,881.336 2225.95,874.895 2241.05,868.455 2256.15,862.015 2271.25,855.574 2286.35,849.134 2301.45,842.694 2316.55,836.253 2331.65,829.813 2346.75,823.373 2361.85,816.932 2376.95,810.492 2392.05,804.052 2407.15,797.612 2422.25,791.171 2437.36,784.731 2452.46,778.291 2467.56,771.85 2482.66,765.41 2497.76,758.97 2512.86,752.529 2527.96,746.089 2543.06,739.649 2558.16,733.208 2573.26,726.768 "/>
<polyline clip-path="url(#clip452)" style="stroke:#e26f46; stroke-linecap:round; stroke-linejoin:round; stroke-width:4; stroke-opacity:1; fill:none" points="323.315,1682.16 338.415,1671.51 353.515,1660.86 368.615,1650.21 383.716,1639.55 398.816,1628.9 413.916,1618.25 429.017,1607.6 444.117,1596.95 459.217,1586.29 474.317,1575.64 489.418,1564.99 504.518,1554.34 519.618,1543.68 534.719,1533.03 549.819,1522.38 564.919,1511.73 580.02,1501.08 595.12,1490.42 610.22,1479.77 625.32,1469.12 640.421,1458.47 655.521,1447.82 670.621,1437.16 685.722,1426.51 700.822,1415.86 715.922,1405.21 731.022,1394.55 746.123,1383.9 761.223,1373.25 776.323,1362.6 791.424,1351.95 806.524,1341.29 821.624,1330.64 836.724,1319.99 851.825,1309.34 866.925,1298.68 882.025,1288.03 897.126,1277.38 912.226,1266.73 927.326,1256.08 942.426,1245.42 957.527,1234.77 972.627,1224.12 987.727,1213.47 1002.83,1202.81 1017.93,1192.16 1033.03,1181.51 1048.13,1170.86 1063.23,1160.21 1078.33,1149.55 1093.43,1138.9 1108.53,1128.25 1123.63,1117.6 1138.73,1106.94 1153.83,1096.29 1168.93,1085.64 1184.03,1074.99 1199.13,1064.34 1214.23,1053.68 1229.33,1043.03 1244.43,1032.38 1259.53,1021.73 1274.63,1011.07 1289.73,1000.42 1304.83,989.77 1319.93,979.118 1335.03,968.466 1350.13,957.814 1365.23,947.162 1380.33,936.509 1395.44,925.857 1410.54,915.205 1425.64,904.553 1440.74,893.901 1455.84,883.248 1470.94,872.596 1486.04,861.944 1501.14,851.292 1516.24,840.64 1531.34,829.988 1546.44,819.335 1561.54,808.683 1576.64,798.031 1591.74,787.379 1606.84,776.727 1621.94,766.074 1637.04,755.422 1652.14,744.77 1667.24,734.118 1682.34,723.466 1697.44,712.813 1712.54,702.161 1727.64,691.509 1742.74,680.857 1757.84,670.205 1772.94,659.552 1788.04,648.9 1803.14,638.248 1818.24,627.596 1833.34,616.944 1848.44,606.291 1863.54,595.639 1878.64,584.987 1893.74,574.335 1908.84,563.683 1923.95,553.03 1939.05,542.378 1954.15,531.726 1969.25,521.074 1984.35,510.422 1999.45,499.769 2014.55,489.117 2029.65,478.465 2044.75,467.813 2059.85,457.161 2074.95,446.508 2090.05,435.856 2105.15,425.204 2120.25,414.552 2135.35,403.9 2150.45,393.247 2165.55,382.595 2180.65,371.943 2195.75,361.291 2210.85,350.639 2225.95,339.986 2241.05,329.334 2256.15,318.682 2271.25,308.03 2286.35,297.378 2301.45,286.725 2316.55,276.073 2331.65,265.421 2346.75,254.769 2361.85,244.117 2376.95,233.464 2392.05,222.812 2407.15,212.16 2422.25,201.508 2437.36,190.856 2452.46,180.203 2467.56,169.551 2482.66,158.899 2497.76,148.247 2512.86,137.595 2527.96,126.942 2543.06,116.29 2558.16,105.638 2573.26,94.9858 "/>
<path clip-path="url(#clip450)" d="M335.314 258.993 L845.497 258.993 L845.497 103.473 L335.314 103.473  Z" fill="#ffffff" fill-rule="evenodd" fill-opacity="1"/>
<polyline clip-path="url(#clip450)" style="stroke:#000000; stroke-linecap:round; stroke-linejoin:round; stroke-width:4; stroke-opacity:1; fill:none" points="335.314,258.993 845.497,258.993 845.497,103.473 335.314,103.473 335.314,258.993 "/>
<polyline clip-path="url(#clip450)" style="stroke:#009af9; stroke-linecap:round; stroke-linejoin:round; stroke-width:4; stroke-opacity:1; fill:none" points="361.814,155.313 520.81,155.313 "/>
<path clip-path="url(#clip450)" d="M563.813 136.575 L563.813 140.117 L559.739 140.117 Q557.448 140.117 556.545 141.042 Q555.665 141.968 555.665 144.376 L555.665 146.667 L562.679 146.667 L562.679 149.978 L555.665 149.978 L555.665 172.593 L551.383 172.593 L551.383 149.978 L547.309 149.978 L547.309 146.667 L551.383 146.667 L551.383 144.862 Q551.383 140.533 553.397 138.566 Q555.411 136.575 559.786 136.575 L563.813 136.575 Z" fill="#000000" fill-rule="nonzero" fill-opacity="1" /><path clip-path="url(#clip450)" d="M567.378 146.667 L571.638 146.667 L571.638 172.593 L567.378 172.593 L567.378 146.667 M567.378 136.575 L571.638 136.575 L571.638 141.968 L567.378 141.968 L567.378 136.575 Z" fill="#000000" fill-rule="nonzero" fill-opacity="1" /><path clip-path="url(#clip450)" d="M580.549 136.575 L584.809 136.575 L584.809 172.593 L580.549 172.593 L580.549 136.575 Z" fill="#000000" fill-rule="nonzero" fill-opacity="1" /><path clip-path="url(#clip450)" d="M613.906 151.644 Q615.503 148.774 617.725 147.408 Q619.947 146.042 622.957 146.042 Q627.008 146.042 629.207 148.89 Q631.406 151.714 631.406 156.945 L631.406 172.593 L627.123 172.593 L627.123 157.084 Q627.123 153.357 625.804 151.552 Q624.484 149.746 621.776 149.746 Q618.466 149.746 616.545 151.945 Q614.623 154.144 614.623 157.94 L614.623 172.593 L610.341 172.593 L610.341 157.084 Q610.341 153.334 609.022 151.552 Q607.702 149.746 604.948 149.746 Q601.684 149.746 599.762 151.968 Q597.841 154.167 597.841 157.94 L597.841 172.593 L593.559 172.593 L593.559 146.667 L597.841 146.667 L597.841 150.695 Q599.299 148.311 601.336 147.177 Q603.373 146.042 606.174 146.042 Q608.998 146.042 610.966 147.478 Q612.957 148.913 613.906 151.644 Z" fill="#000000" fill-rule="nonzero" fill-opacity="1" /><polyline clip-path="url(#clip450)" style="stroke:#e26f46; stroke-linecap:round; stroke-linejoin:round; stroke-width:4; stroke-opacity:1; fill:none" points="361.814,207.153 520.81,207.153 "/>
<path clip-path="url(#clip450)" d="M551.591 220.544 L551.591 234.294 L547.309 234.294 L547.309 198.507 L551.591 198.507 L551.591 202.443 Q552.934 200.128 554.971 199.017 Q557.031 197.882 559.878 197.882 Q564.601 197.882 567.54 201.632 Q570.503 205.382 570.503 211.493 Q570.503 217.605 567.54 221.355 Q564.601 225.104 559.878 225.104 Q557.031 225.104 554.971 223.993 Q552.934 222.859 551.591 220.544 M566.082 211.493 Q566.082 206.794 564.138 204.132 Q562.216 201.447 558.837 201.447 Q555.457 201.447 553.513 204.132 Q551.591 206.794 551.591 211.493 Q551.591 216.192 553.513 218.878 Q555.457 221.54 558.837 221.54 Q562.216 221.54 564.138 218.878 Q566.082 216.192 566.082 211.493 Z" fill="#000000" fill-rule="nonzero" fill-opacity="1" /><path clip-path="url(#clip450)" d="M589.346 211.401 Q584.184 211.401 582.193 212.581 Q580.202 213.762 580.202 216.609 Q580.202 218.878 581.684 220.22 Q583.188 221.54 585.758 221.54 Q589.299 221.54 591.429 219.04 Q593.582 216.517 593.582 212.35 L593.582 211.401 L589.346 211.401 M597.841 209.642 L597.841 224.433 L593.582 224.433 L593.582 220.498 Q592.124 222.859 589.948 223.993 Q587.772 225.104 584.624 225.104 Q580.642 225.104 578.281 222.882 Q575.943 220.637 575.943 216.887 Q575.943 212.512 578.86 210.29 Q581.799 208.068 587.61 208.068 L593.582 208.068 L593.582 207.651 Q593.582 204.711 591.637 203.114 Q589.716 201.493 586.221 201.493 Q583.999 201.493 581.892 202.026 Q579.786 202.558 577.841 203.623 L577.841 199.688 Q580.179 198.785 582.378 198.345 Q584.577 197.882 586.661 197.882 Q592.286 197.882 595.063 200.799 Q597.841 203.716 597.841 209.642 Z" fill="#000000" fill-rule="nonzero" fill-opacity="1" /><path clip-path="url(#clip450)" d="M621.637 202.489 Q620.92 202.072 620.063 201.887 Q619.23 201.679 618.211 201.679 Q614.6 201.679 612.656 204.04 Q610.735 206.378 610.735 210.776 L610.735 224.433 L606.452 224.433 L606.452 198.507 L610.735 198.507 L610.735 202.535 Q612.077 200.174 614.23 199.04 Q616.383 197.882 619.461 197.882 Q619.901 197.882 620.434 197.952 Q620.966 197.998 621.614 198.114 L621.637 202.489 Z" fill="#000000" fill-rule="nonzero" fill-opacity="1" /><path clip-path="url(#clip450)" d="M630.318 191.146 L630.318 198.507 L639.091 198.507 L639.091 201.818 L630.318 201.818 L630.318 215.892 Q630.318 219.063 631.174 219.966 Q632.054 220.868 634.716 220.868 L639.091 220.868 L639.091 224.433 L634.716 224.433 Q629.785 224.433 627.91 222.604 Q626.035 220.753 626.035 215.892 L626.035 201.818 L622.91 201.818 L622.91 198.507 L626.035 198.507 L626.035 191.146 L630.318 191.146 Z" fill="#000000" fill-rule="nonzero" fill-opacity="1" /><path clip-path="url(#clip450)" d="M644.693 198.507 L648.952 198.507 L648.952 224.433 L644.693 224.433 L644.693 198.507 M644.693 188.415 L648.952 188.415 L648.952 193.808 L644.693 193.808 L644.693 188.415 Z" fill="#000000" fill-rule="nonzero" fill-opacity="1" /><path clip-path="url(#clip450)" d="M676.521 199.503 L676.521 203.484 Q674.716 202.489 672.887 202.003 Q671.081 201.493 669.23 201.493 Q665.086 201.493 662.794 204.132 Q660.503 206.748 660.503 211.493 Q660.503 216.239 662.794 218.878 Q665.086 221.493 669.23 221.493 Q671.081 221.493 672.887 221.007 Q674.716 220.498 676.521 219.503 L676.521 223.438 Q674.739 224.271 672.818 224.688 Q670.919 225.104 668.767 225.104 Q662.91 225.104 659.461 221.424 Q656.012 217.743 656.012 211.493 Q656.012 205.151 659.484 201.517 Q662.98 197.882 669.044 197.882 Q671.012 197.882 672.887 198.299 Q674.762 198.693 676.521 199.503 Z" fill="#000000" fill-rule="nonzero" fill-opacity="1" /><path clip-path="url(#clip450)" d="M683.929 188.415 L688.188 188.415 L688.188 224.433 L683.929 224.433 L683.929 188.415 Z" fill="#000000" fill-rule="nonzero" fill-opacity="1" /><path clip-path="url(#clip450)" d="M719.276 210.405 L719.276 212.489 L699.692 212.489 Q699.97 216.887 702.331 219.202 Q704.715 221.493 708.952 221.493 Q711.405 221.493 713.697 220.892 Q716.012 220.29 718.28 219.086 L718.28 223.114 Q715.989 224.086 713.581 224.595 Q711.174 225.104 708.697 225.104 Q702.493 225.104 698.859 221.493 Q695.248 217.882 695.248 211.725 Q695.248 205.359 698.674 201.632 Q702.123 197.882 707.956 197.882 Q713.188 197.882 716.22 201.262 Q719.276 204.618 719.276 210.405 M715.016 209.155 Q714.97 205.66 713.049 203.577 Q711.151 201.493 708.003 201.493 Q704.438 201.493 702.285 203.507 Q700.155 205.521 699.831 209.179 L715.016 209.155 Z" fill="#000000" fill-rule="nonzero" fill-opacity="1" /><path clip-path="url(#clip450)" d="M751.567 188.461 Q748.465 193.785 746.961 198.994 Q745.456 204.202 745.456 209.549 Q745.456 214.896 746.961 220.151 Q748.488 225.382 751.567 230.683 L747.863 230.683 Q744.391 225.243 742.655 219.989 Q740.942 214.734 740.942 209.549 Q740.942 204.387 742.655 199.156 Q744.368 193.924 747.863 188.461 L751.567 188.461 Z" fill="#000000" fill-rule="nonzero" fill-opacity="1" /><path clip-path="url(#clip450)" d="M781.382 208.785 L781.382 234.294 L777.123 234.294 L777.123 208.924 Q777.123 205.243 775.687 203.415 Q774.252 201.586 771.382 201.586 Q767.933 201.586 765.942 203.785 Q763.951 205.984 763.951 209.78 L763.951 224.433 L759.669 224.433 L759.669 198.507 L763.951 198.507 L763.951 202.535 Q765.479 200.197 767.539 199.04 Q769.623 197.882 772.331 197.882 Q776.798 197.882 779.09 200.637 Q781.382 203.415 781.382 208.785 Z" fill="#000000" fill-rule="nonzero" fill-opacity="1" /><path clip-path="url(#clip450)" d="M801.798 215.66 L801.798 224.433 L799.113 224.433 L799.113 215.753 Q799.113 213.693 798.21 212.674 Q797.308 211.632 795.502 211.632 Q793.326 211.632 792.076 212.882 Q790.826 214.109 790.826 216.239 L790.826 224.433 L788.118 224.433 L788.118 204.271 L790.826 204.271 L790.826 212.165 Q791.775 210.868 793.072 210.22 Q794.391 209.572 796.104 209.572 Q798.905 209.572 800.34 211.123 Q801.798 212.674 801.798 215.66 Z" fill="#000000" fill-rule="nonzero" fill-opacity="1" /><path clip-path="url(#clip450)" d="M808.372 188.461 L812.076 188.461 Q815.548 193.924 817.261 199.156 Q818.997 204.387 818.997 209.549 Q818.997 214.734 817.261 219.989 Q815.548 225.243 812.076 230.683 L808.372 230.683 Q811.451 225.382 812.956 220.151 Q814.483 214.896 814.483 209.549 Q814.483 204.202 812.956 198.994 Q811.451 193.785 808.372 188.461 Z" fill="#000000" fill-rule="nonzero" fill-opacity="1" /></svg>
