<?xml version="1.0" encoding="utf-8"?>
<svg xmlns="http://www.w3.org/2000/svg" xmlns:xlink="http://www.w3.org/1999/xlink" width="400" height="250" viewBox="0 0 1600 1000">
<defs>
  <clipPath id="clip060">
    <rect x="0" y="0" width="1600" height="1000"/>
  </clipPath>
</defs>
<path clip-path="url(#clip060)" d="M0 1000 L1600 1000 L1600 0 L0 0  Z" fill="#ffffff" fill-rule="evenodd" fill-opacity="1"/>
<defs>
  <clipPath id="clip061">
    <rect x="320" y="0" width="1121" height="1000"/>
  </clipPath>
</defs>
<path clip-path="url(#clip060)" d="M238.572 834.31 L1552.76 834.31 L1552.76 47.2441 L238.572 47.2441  Z" fill="#ffffff" fill-rule="evenodd" fill-opacity="1"/>
<defs>
  <clipPath id="clip062">
    <rect x="238" y="47" width="1315" height="788"/>
  </clipPath>
</defs>
<polyline clip-path="url(#clip062)" style="stroke:#000000; stroke-linecap:round; stroke-linejoin:round; stroke-width:2; stroke-opacity:0.1; fill:none" points="267.445,834.31 267.445,47.2441 "/>
<polyline clip-path="url(#clip062)" style="stroke:#000000; stroke-linecap:round; stroke-linejoin:round; stroke-width:2; stroke-opacity:0.1; fill:none" points="683.484,834.31 683.484,47.2441 "/>
<polyline clip-path="url(#clip062)" style="stroke:#000000; stroke-linecap:round; stroke-linejoin:round; stroke-width:2; stroke-opacity:0.1; fill:none" points="1099.52,834.31 1099.52,47.2441 "/>
<polyline clip-path="url(#clip062)" style="stroke:#000000; stroke-linecap:round; stroke-linejoin:round; stroke-width:2; stroke-opacity:0.1; fill:none" points="1515.56,834.31 1515.56,47.2441 "/>
<polyline clip-path="url(#clip062)" style="stroke:#000000; stroke-linecap:round; stroke-linejoin:round; stroke-width:2; stroke-opacity:0.1; fill:none" points="238.572,815.039 1552.76,815.039 "/>
<polyline clip-path="url(#clip062)" style="stroke:#000000; stroke-linecap:round; stroke-linejoin:round; stroke-width:2; stroke-opacity:0.1; fill:none" points="238.572,602.29 1552.76,602.29 "/>
<polyline clip-path="url(#clip062)" style="stroke:#000000; stroke-linecap:round; stroke-linejoin:round; stroke-width:2; stroke-opacity:0.1; fill:none" points="238.572,389.54 1552.76,389.54 "/>
<polyline clip-path="url(#clip062)" style="stroke:#000000; stroke-linecap:round; stroke-linejoin:round; stroke-width:2; stroke-opacity:0.1; fill:none" points="238.572,176.79 1552.76,176.79 "/>
<polyline clip-path="url(#clip060)" style="stroke:#000000; stroke-linecap:round; stroke-linejoin:round; stroke-width:4; stroke-opacity:1; fill:none" points="238.572,834.31 1552.76,834.31 "/>
<polyline clip-path="url(#clip060)" style="stroke:#000000; stroke-linecap:round; stroke-linejoin:round; stroke-width:4; stroke-opacity:1; fill:none" points="267.445,834.31 267.445,815.412 "/>
<polyline clip-path="url(#clip060)" style="stroke:#000000; stroke-linecap:round; stroke-linejoin:round; stroke-width:4; stroke-opacity:1; fill:none" points="683.484,834.31 683.484,815.412 "/>
<polyline clip-path="url(#clip060)" style="stroke:#000000; stroke-linecap:round; stroke-linejoin:round; stroke-width:4; stroke-opacity:1; fill:none" points="1099.52,834.31 1099.52,815.412 "/>
<polyline clip-path="url(#clip060)" style="stroke:#000000; stroke-linecap:round; stroke-linejoin:round; stroke-width:4; stroke-opacity:1; fill:none" points="1515.56,834.31 1515.56,815.412 "/>
<path clip-path="url(#clip060)" d="M267.445 858.829 Q263.834 858.829 262.005 862.393 Q260.2 865.935 260.2 873.065 Q260.2 880.171 262.005 883.736 Q263.834 887.277 267.445 887.277 Q271.079 887.277 272.885 883.736 Q274.714 880.171 274.714 873.065 Q274.714 865.935 272.885 862.393 Q271.079 858.829 267.445 858.829 M267.445 855.125 Q273.255 855.125 276.311 859.731 Q279.39 864.315 279.39 873.065 Q279.39 881.791 276.311 886.398 Q273.255 890.981 267.445 890.981 Q261.635 890.981 258.556 886.398 Q255.501 881.791 255.501 873.065 Q255.501 864.315 258.556 859.731 Q261.635 855.125 267.445 855.125 Z" fill="#000000" fill-rule="nonzero" fill-opacity="1" /><path clip-path="url(#clip060)" d="M658.183 855.75 L676.54 855.75 L676.54 859.685 L662.466 859.685 L662.466 868.157 Q663.484 867.81 664.503 867.648 Q665.521 867.463 666.54 867.463 Q672.327 867.463 675.706 870.634 Q679.086 873.805 679.086 879.222 Q679.086 884.801 675.614 887.902 Q672.142 890.981 665.822 890.981 Q663.646 890.981 661.378 890.611 Q659.132 890.24 656.725 889.5 L656.725 884.801 Q658.808 885.935 661.031 886.49 Q663.253 887.046 665.73 887.046 Q669.734 887.046 672.072 884.94 Q674.41 882.833 674.41 879.222 Q674.41 875.611 672.072 873.504 Q669.734 871.398 665.73 871.398 Q663.855 871.398 661.98 871.815 Q660.128 872.231 658.183 873.111 L658.183 855.75 Z" fill="#000000" fill-rule="nonzero" fill-opacity="1" /><path clip-path="url(#clip060)" d="M698.299 858.829 Q694.688 858.829 692.859 862.393 Q691.054 865.935 691.054 873.065 Q691.054 880.171 692.859 883.736 Q694.688 887.277 698.299 887.277 Q701.933 887.277 703.739 883.736 Q705.567 880.171 705.567 873.065 Q705.567 865.935 703.739 862.393 Q701.933 858.829 698.299 858.829 M698.299 855.125 Q704.109 855.125 707.165 859.731 Q710.243 864.315 710.243 873.065 Q710.243 881.791 707.165 886.398 Q704.109 890.981 698.299 890.981 Q692.489 890.981 689.41 886.398 Q686.354 881.791 686.354 873.065 Q686.354 864.315 689.41 859.731 Q692.489 855.125 698.299 855.125 Z" fill="#000000" fill-rule="nonzero" fill-opacity="1" /><path clip-path="url(#clip060)" d="M1059.13 886.375 L1066.77 886.375 L1066.77 860.009 L1058.46 861.676 L1058.46 857.417 L1066.72 855.75 L1071.4 855.75 L1071.4 886.375 L1079.04 886.375 L1079.04 890.31 L1059.13 890.31 L1059.13 886.375 Z" fill="#000000" fill-rule="nonzero" fill-opacity="1" /><path clip-path="url(#clip060)" d="M1098.48 858.829 Q1094.87 858.829 1093.04 862.393 Q1091.24 865.935 1091.24 873.065 Q1091.24 880.171 1093.04 883.736 Q1094.87 887.277 1098.48 887.277 Q1102.12 887.277 1103.92 883.736 Q1105.75 880.171 1105.75 873.065 Q1105.75 865.935 1103.92 862.393 Q1102.12 858.829 1098.48 858.829 M1098.48 855.125 Q1104.29 855.125 1107.35 859.731 Q1110.43 864.315 1110.43 873.065 Q1110.43 881.791 1107.35 886.398 Q1104.29 890.981 1098.48 890.981 Q1092.67 890.981 1089.59 886.398 Q1086.54 881.791 1086.54 873.065 Q1086.54 864.315 1089.59 859.731 Q1092.67 855.125 1098.48 855.125 Z" fill="#000000" fill-rule="nonzero" fill-opacity="1" /><path clip-path="url(#clip060)" d="M1128.64 858.829 Q1125.03 858.829 1123.2 862.393 Q1121.4 865.935 1121.4 873.065 Q1121.4 880.171 1123.2 883.736 Q1125.03 887.277 1128.64 887.277 Q1132.28 887.277 1134.08 883.736 Q1135.91 880.171 1135.91 873.065 Q1135.91 865.935 1134.08 862.393 Q1132.28 858.829 1128.64 858.829 M1128.64 855.125 Q1134.45 855.125 1137.51 859.731 Q1140.59 864.315 1140.59 873.065 Q1140.59 881.791 1137.51 886.398 Q1134.45 890.981 1128.64 890.981 Q1122.83 890.981 1119.75 886.398 Q1116.7 881.791 1116.7 873.065 Q1116.7 864.315 1119.75 859.731 Q1122.83 855.125 1128.64 855.125 Z" fill="#000000" fill-rule="nonzero" fill-opacity="1" /><path clip-path="url(#clip060)" d="M1475.17 886.375 L1482.81 886.375 L1482.81 860.009 L1474.5 861.676 L1474.5 857.417 L1482.76 855.75 L1487.44 855.75 L1487.44 886.375 L1495.08 886.375 L1495.08 890.31 L1475.17 890.31 L1475.17 886.375 Z" fill="#000000" fill-rule="nonzero" fill-opacity="1" /><path clip-path="url(#clip060)" d="M1504.57 855.75 L1522.92 855.75 L1522.92 859.685 L1508.85 859.685 L1508.85 868.157 Q1509.87 867.81 1510.89 867.648 Q1511.9 867.463 1512.92 867.463 Q1518.71 867.463 1522.09 870.634 Q1525.47 873.805 1525.47 879.222 Q1525.47 884.801 1522 887.902 Q1518.52 890.981 1512.21 890.981 Q1510.03 890.981 1507.76 890.611 Q1505.52 890.24 1503.11 889.5 L1503.11 884.801 Q1505.19 885.935 1507.41 886.49 Q1509.64 887.046 1512.11 887.046 Q1516.12 887.046 1518.46 884.94 Q1520.79 882.833 1520.79 879.222 Q1520.79 875.611 1518.46 873.504 Q1516.12 871.398 1512.11 871.398 Q1510.24 871.398 1508.36 871.815 Q1506.51 872.231 1504.57 873.111 L1504.57 855.75 Z" fill="#000000" fill-rule="nonzero" fill-opacity="1" /><path clip-path="url(#clip060)" d="M1544.68 858.829 Q1541.07 858.829 1539.24 862.393 Q1537.44 865.935 1537.44 873.065 Q1537.44 880.171 1539.24 883.736 Q1541.07 887.277 1544.68 887.277 Q1548.32 887.277 1550.12 883.736 Q1551.95 880.171 1551.95 873.065 Q1551.95 865.935 1550.12 862.393 Q1548.32 858.829 1544.68 858.829 M1544.68 855.125 Q1550.49 855.125 1553.55 859.731 Q1556.63 864.315 1556.63 873.065 Q1556.63 881.791 1553.55 886.398 Q1550.49 890.981 1544.68 890.981 Q1538.87 890.981 1535.79 886.398 Q1532.74 881.791 1532.74 873.065 Q1532.74 864.315 1535.79 859.731 Q1538.87 855.125 1544.68 855.125 Z" fill="#000000" fill-rule="nonzero" fill-opacity="1" /><path clip-path="url(#clip060)" d="M766.504 938.369 Q768.7 934.422 771.755 932.544 Q774.811 930.667 778.949 930.667 Q784.519 930.667 787.542 934.581 Q790.566 938.465 790.566 945.658 L790.566 967.174 L784.678 967.174 L784.678 945.849 Q784.678 940.724 782.864 938.242 Q781.049 935.759 777.325 935.759 Q772.774 935.759 770.132 938.783 Q767.49 941.807 767.49 947.026 L767.49 967.174 L761.602 967.174 L761.602 945.849 Q761.602 940.693 759.788 938.242 Q757.974 935.759 754.186 935.759 Q749.698 935.759 747.057 938.815 Q744.415 941.838 744.415 947.026 L744.415 967.174 L738.527 967.174 L738.527 931.526 L744.415 931.526 L744.415 937.064 Q746.42 933.786 749.221 932.226 Q752.022 930.667 755.873 930.667 Q759.756 930.667 762.462 932.64 Q765.199 934.613 766.504 938.369 Z" fill="#000000" fill-rule="nonzero" fill-opacity="1" /><path clip-path="url(#clip060)" d="M818.448 949.254 Q811.35 949.254 808.613 950.878 Q805.876 952.501 805.876 956.416 Q805.876 959.535 807.913 961.381 Q809.982 963.195 813.515 963.195 Q818.384 963.195 821.313 959.758 Q824.273 956.288 824.273 950.559 L824.273 949.254 L818.448 949.254 M830.129 946.835 L830.129 967.174 L824.273 967.174 L824.273 961.763 Q822.267 965.01 819.275 966.569 Q816.284 968.097 811.955 968.097 Q806.48 968.097 803.234 965.041 Q800.019 961.954 800.019 956.798 Q800.019 950.782 804.03 947.727 Q808.072 944.671 816.061 944.671 L824.273 944.671 L824.273 944.098 Q824.273 940.056 821.599 937.86 Q818.957 935.632 814.151 935.632 Q811.096 935.632 808.199 936.364 Q805.303 937.096 802.629 938.56 L802.629 933.149 Q805.844 931.908 808.868 931.303 Q811.891 930.667 814.756 930.667 Q822.49 930.667 826.31 934.677 Q830.129 938.687 830.129 946.835 Z" fill="#000000" fill-rule="nonzero" fill-opacity="1" /><path clip-path="url(#clip060)" d="M864.918 932.576 L864.918 938.114 Q862.435 936.841 859.761 936.205 Q857.088 935.568 854.223 935.568 Q849.863 935.568 847.667 936.905 Q845.502 938.242 845.502 940.915 Q845.502 942.952 847.062 944.13 Q848.621 945.276 853.332 946.326 L855.337 946.772 Q861.576 948.109 864.186 950.559 Q866.827 952.978 866.827 957.339 Q866.827 962.304 862.881 965.2 Q858.966 968.097 852.091 968.097 Q849.226 968.097 846.107 967.524 Q843.02 966.983 839.582 965.869 L839.582 959.821 Q842.829 961.508 845.98 962.368 Q849.131 963.195 852.218 963.195 Q856.356 963.195 858.584 961.795 Q860.812 960.363 860.812 957.784 Q860.812 955.397 859.188 954.124 Q857.597 952.851 852.154 951.673 L850.117 951.196 Q844.675 950.05 842.256 947.695 Q839.837 945.308 839.837 941.17 Q839.837 936.141 843.402 933.404 Q846.966 930.667 853.523 930.667 Q856.77 930.667 859.634 931.144 Q862.499 931.621 864.918 932.576 Z" fill="#000000" fill-rule="nonzero" fill-opacity="1" /><path clip-path="url(#clip060)" d="M898.879 932.576 L898.879 938.114 Q896.396 936.841 893.722 936.205 Q891.049 935.568 888.184 935.568 Q883.824 935.568 881.628 936.905 Q879.463 938.242 879.463 940.915 Q879.463 942.952 881.023 944.13 Q882.582 945.276 887.293 946.326 L889.298 946.772 Q895.537 948.109 898.147 950.559 Q900.788 952.978 900.788 957.339 Q900.788 962.304 896.842 965.2 Q892.927 968.097 886.052 968.097 Q883.187 968.097 880.068 967.524 Q876.981 966.983 873.543 965.869 L873.543 959.821 Q876.79 961.508 879.941 962.368 Q883.092 963.195 886.179 963.195 Q890.317 963.195 892.545 961.795 Q894.773 960.363 894.773 957.784 Q894.773 955.397 893.15 954.124 Q891.558 952.851 886.115 951.673 L884.078 951.196 Q878.636 950.05 876.217 947.695 Q873.798 945.308 873.798 941.17 Q873.798 936.141 877.363 933.404 Q880.927 930.667 887.484 930.667 Q890.731 930.667 893.595 931.144 Q896.46 931.621 898.879 932.576 Z" fill="#000000" fill-rule="nonzero" fill-opacity="1" /><path clip-path="url(#clip060)" d="M944.903 917.712 Q940.638 925.033 938.569 932.194 Q936.5 939.356 936.5 946.708 Q936.5 954.06 938.569 961.286 Q940.67 968.479 944.903 975.768 L939.81 975.768 Q935.036 968.288 932.649 961.063 Q930.293 953.838 930.293 946.708 Q930.293 939.61 932.649 932.417 Q935.004 925.224 939.81 917.712 L944.903 917.712 Z" fill="#000000" fill-rule="nonzero" fill-opacity="1" /><path clip-path="url(#clip060)" d="M955.661 980.733 L955.661 931.526 L961.517 931.526 L961.517 953.679 Q961.517 958.294 963.713 960.649 Q965.91 963.004 970.206 963.004 Q974.917 963.004 977.272 960.331 Q979.659 957.657 979.659 952.31 L979.659 931.526 L985.516 931.526 L985.516 958.962 Q985.516 960.872 986.057 961.795 Q986.63 962.686 987.808 962.686 Q988.094 962.686 988.603 962.527 Q989.113 962.336 990.004 961.954 L990.004 966.665 Q988.699 967.397 987.521 967.747 Q986.375 968.097 985.261 968.097 Q983.065 968.097 981.76 966.856 Q980.455 965.614 979.978 963.068 Q978.386 965.582 976.063 966.856 Q973.771 968.097 970.652 968.097 Q967.405 968.097 965.114 966.856 Q962.854 965.614 961.517 963.132 L961.517 980.733 L955.661 980.733 Z" fill="#000000" fill-rule="nonzero" fill-opacity="1" /><path clip-path="url(#clip060)" d="M1021.2 948.936 Q1021.2 942.57 1018.55 939.069 Q1015.94 935.568 1011.2 935.568 Q1006.49 935.568 1003.85 939.069 Q1001.24 942.57 1001.24 948.936 Q1001.24 955.27 1003.85 958.771 Q1006.49 962.272 1011.2 962.272 Q1015.94 962.272 1018.55 958.771 Q1021.2 955.27 1021.2 948.936 M1027.05 962.75 Q1027.05 971.853 1023.01 976.277 Q1018.97 980.733 1010.63 980.733 Q1007.54 980.733 1004.8 980.255 Q1002.07 979.81 999.489 978.855 L999.489 973.158 Q1002.07 974.558 1004.58 975.226 Q1007.1 975.895 1009.71 975.895 Q1015.47 975.895 1018.33 972.871 Q1021.2 969.879 1021.2 963.8 L1021.2 960.904 Q1019.38 964.055 1016.55 965.614 Q1013.72 967.174 1009.77 967.174 Q1003.21 967.174 999.202 962.177 Q995.192 957.18 995.192 948.936 Q995.192 940.661 999.202 935.664 Q1003.21 930.667 1009.77 930.667 Q1013.72 930.667 1016.55 932.226 Q1019.38 933.786 1021.2 936.937 L1021.2 931.526 L1027.05 931.526 L1027.05 962.75 Z" fill="#000000" fill-rule="nonzero" fill-opacity="1" /><path clip-path="url(#clip060)" d="M1038.19 917.712 L1043.28 917.712 Q1048.06 925.224 1050.41 932.417 Q1052.8 939.61 1052.8 946.708 Q1052.8 953.838 1050.41 961.063 Q1048.06 968.288 1043.28 975.768 L1038.19 975.768 Q1042.43 968.479 1044.49 961.286 Q1046.59 954.06 1046.59 946.708 Q1046.59 939.356 1044.49 932.194 Q1042.43 925.033 1038.19 917.712 Z" fill="#000000" fill-rule="nonzero" fill-opacity="1" /><polyline clip-path="url(#clip060)" style="stroke:#000000; stroke-linecap:round; stroke-linejoin:round; stroke-width:4; stroke-opacity:1; fill:none" points="238.572,834.31 238.572,47.2441 "/>
<polyline clip-path="url(#clip060)" style="stroke:#000000; stroke-linecap:round; stroke-linejoin:round; stroke-width:4; stroke-opacity:1; fill:none" points="238.572,815.039 257.47,815.039 "/>
<polyline clip-path="url(#clip060)" style="stroke:#000000; stroke-linecap:round; stroke-linejoin:round; stroke-width:4; stroke-opacity:1; fill:none" points="238.572,602.29 257.47,602.29 "/>
<polyline clip-path="url(#clip060)" style="stroke:#000000; stroke-linecap:round; stroke-linejoin:round; stroke-width:4; stroke-opacity:1; fill:none" points="238.572,389.54 257.47,389.54 "/>
<polyline clip-path="url(#clip060)" style="stroke:#000000; stroke-linecap:round; stroke-linejoin:round; stroke-width:4; stroke-opacity:1; fill:none" points="238.572,176.79 257.47,176.79 "/>
<path clip-path="url(#clip060)" d="M127.235 800.838 Q123.623 800.838 121.795 804.403 Q119.989 807.944 119.989 815.074 Q119.989 822.181 121.795 825.745 Q123.623 829.287 127.235 829.287 Q130.869 829.287 132.674 825.745 Q134.503 822.181 134.503 815.074 Q134.503 807.944 132.674 804.403 Q130.869 800.838 127.235 800.838 M127.235 797.134 Q133.045 797.134 136.1 801.741 Q139.179 806.324 139.179 815.074 Q139.179 823.801 136.1 828.407 Q133.045 832.991 127.235 832.991 Q121.424 832.991 118.346 828.407 Q115.29 823.801 115.29 815.074 Q115.29 806.324 118.346 801.741 Q121.424 797.134 127.235 797.134 Z" fill="#000000" fill-rule="nonzero" fill-opacity="1" /><path clip-path="url(#clip060)" d="M147.396 826.44 L152.281 826.44 L152.281 832.319 L147.396 832.319 L147.396 826.44 Z" fill="#000000" fill-rule="nonzero" fill-opacity="1" /><path clip-path="url(#clip060)" d="M172.466 800.838 Q168.855 800.838 167.026 804.403 Q165.22 807.944 165.22 815.074 Q165.22 822.181 167.026 825.745 Q168.855 829.287 172.466 829.287 Q176.1 829.287 177.906 825.745 Q179.734 822.181 179.734 815.074 Q179.734 807.944 177.906 804.403 Q176.1 800.838 172.466 800.838 M172.466 797.134 Q178.276 797.134 181.331 801.741 Q184.41 806.324 184.41 815.074 Q184.41 823.801 181.331 828.407 Q178.276 832.991 172.466 832.991 Q166.656 832.991 163.577 828.407 Q160.521 823.801 160.521 815.074 Q160.521 806.324 163.577 801.741 Q166.656 797.134 172.466 797.134 Z" fill="#000000" fill-rule="nonzero" fill-opacity="1" /><path clip-path="url(#clip060)" d="M202.628 800.838 Q199.017 800.838 197.188 804.403 Q195.382 807.944 195.382 815.074 Q195.382 822.181 197.188 825.745 Q199.017 829.287 202.628 829.287 Q206.262 829.287 208.067 825.745 Q209.896 822.181 209.896 815.074 Q209.896 807.944 208.067 804.403 Q206.262 800.838 202.628 800.838 M202.628 797.134 Q208.438 797.134 211.493 801.741 Q214.572 806.324 214.572 815.074 Q214.572 823.801 211.493 828.407 Q208.438 832.991 202.628 832.991 Q196.817 832.991 193.739 828.407 Q190.683 823.801 190.683 815.074 Q190.683 806.324 193.739 801.741 Q196.817 797.134 202.628 797.134 Z" fill="#000000" fill-rule="nonzero" fill-opacity="1" /><path clip-path="url(#clip060)" d="M128.23 588.088 Q124.619 588.088 122.79 591.653 Q120.985 595.195 120.985 602.324 Q120.985 609.431 122.79 612.995 Q124.619 616.537 128.23 616.537 Q131.864 616.537 133.67 612.995 Q135.498 609.431 135.498 602.324 Q135.498 595.195 133.67 591.653 Q131.864 588.088 128.23 588.088 M128.23 584.385 Q134.04 584.385 137.096 588.991 Q140.174 593.574 140.174 602.324 Q140.174 611.051 137.096 615.658 Q134.04 620.241 128.23 620.241 Q122.42 620.241 119.341 615.658 Q116.286 611.051 116.286 602.324 Q116.286 593.574 119.341 588.991 Q122.42 584.385 128.23 584.385 Z" fill="#000000" fill-rule="nonzero" fill-opacity="1" /><path clip-path="url(#clip060)" d="M148.392 613.69 L153.276 613.69 L153.276 619.57 L148.392 619.57 L148.392 613.69 Z" fill="#000000" fill-rule="nonzero" fill-opacity="1" /><path clip-path="url(#clip060)" d="M173.461 588.088 Q169.85 588.088 168.021 591.653 Q166.216 595.195 166.216 602.324 Q166.216 609.431 168.021 612.995 Q169.85 616.537 173.461 616.537 Q177.095 616.537 178.901 612.995 Q180.73 609.431 180.73 602.324 Q180.73 595.195 178.901 591.653 Q177.095 588.088 173.461 588.088 M173.461 584.385 Q179.271 584.385 182.327 588.991 Q185.406 593.574 185.406 602.324 Q185.406 611.051 182.327 615.658 Q179.271 620.241 173.461 620.241 Q167.651 620.241 164.572 615.658 Q161.517 611.051 161.517 602.324 Q161.517 593.574 164.572 588.991 Q167.651 584.385 173.461 584.385 Z" fill="#000000" fill-rule="nonzero" fill-opacity="1" /><path clip-path="url(#clip060)" d="M193.669 585.01 L212.026 585.01 L212.026 588.945 L197.952 588.945 L197.952 597.417 Q198.97 597.07 199.989 596.908 Q201.007 596.722 202.026 596.722 Q207.813 596.722 211.192 599.894 Q214.572 603.065 214.572 608.482 Q214.572 614.06 211.1 617.162 Q207.628 620.241 201.308 620.241 Q199.132 620.241 196.864 619.87 Q194.618 619.5 192.211 618.759 L192.211 614.06 Q194.294 615.195 196.517 615.75 Q198.739 616.306 201.216 616.306 Q205.22 616.306 207.558 614.199 Q209.896 612.093 209.896 608.482 Q209.896 604.871 207.558 602.764 Q205.22 600.658 201.216 600.658 Q199.341 600.658 197.466 601.074 Q195.614 601.491 193.669 602.371 L193.669 585.01 Z" fill="#000000" fill-rule="nonzero" fill-opacity="1" /><path clip-path="url(#clip060)" d="M127.235 375.338 Q123.623 375.338 121.795 378.903 Q119.989 382.445 119.989 389.574 Q119.989 396.681 121.795 400.246 Q123.623 403.787 127.235 403.787 Q130.869 403.787 132.674 400.246 Q134.503 396.681 134.503 389.574 Q134.503 382.445 132.674 378.903 Q130.869 375.338 127.235 375.338 M127.235 371.635 Q133.045 371.635 136.1 376.241 Q139.179 380.824 139.179 389.574 Q139.179 398.301 136.1 402.908 Q133.045 407.491 127.235 407.491 Q121.424 407.491 118.346 402.908 Q115.29 398.301 115.29 389.574 Q115.29 380.824 118.346 376.241 Q121.424 371.635 127.235 371.635 Z" fill="#000000" fill-rule="nonzero" fill-opacity="1" /><path clip-path="url(#clip060)" d="M147.396 400.94 L152.281 400.94 L152.281 406.82 L147.396 406.82 L147.396 400.94 Z" fill="#000000" fill-rule="nonzero" fill-opacity="1" /><path clip-path="url(#clip060)" d="M163.276 402.885 L170.915 402.885 L170.915 376.519 L162.605 378.186 L162.605 373.926 L170.869 372.26 L175.544 372.26 L175.544 402.885 L183.183 402.885 L183.183 406.82 L163.276 406.82 L163.276 402.885 Z" fill="#000000" fill-rule="nonzero" fill-opacity="1" /><path clip-path="url(#clip060)" d="M202.628 375.338 Q199.017 375.338 197.188 378.903 Q195.382 382.445 195.382 389.574 Q195.382 396.681 197.188 400.246 Q199.017 403.787 202.628 403.787 Q206.262 403.787 208.067 400.246 Q209.896 396.681 209.896 389.574 Q209.896 382.445 208.067 378.903 Q206.262 375.338 202.628 375.338 M202.628 371.635 Q208.438 371.635 211.493 376.241 Q214.572 380.824 214.572 389.574 Q214.572 398.301 211.493 402.908 Q208.438 407.491 202.628 407.491 Q196.817 407.491 193.739 402.908 Q190.683 398.301 190.683 389.574 Q190.683 380.824 193.739 376.241 Q196.817 371.635 202.628 371.635 Z" fill="#000000" fill-rule="nonzero" fill-opacity="1" /><path clip-path="url(#clip060)" d="M128.23 162.589 Q124.619 162.589 122.79 166.153 Q120.985 169.695 120.985 176.825 Q120.985 183.931 122.79 187.496 Q124.619 191.038 128.23 191.038 Q131.864 191.038 133.67 187.496 Q135.498 183.931 135.498 176.825 Q135.498 169.695 133.67 166.153 Q131.864 162.589 128.23 162.589 M128.23 158.885 Q134.04 158.885 137.096 163.491 Q140.174 168.075 140.174 176.825 Q140.174 185.551 137.096 190.158 Q134.04 194.741 128.23 194.741 Q122.42 194.741 119.341 190.158 Q116.286 185.551 116.286 176.825 Q116.286 168.075 119.341 163.491 Q122.42 158.885 128.23 158.885 Z" fill="#000000" fill-rule="nonzero" fill-opacity="1" /><path clip-path="url(#clip060)" d="M148.392 188.19 L153.276 188.19 L153.276 194.07 L148.392 194.07 L148.392 188.19 Z" fill="#000000" fill-rule="nonzero" fill-opacity="1" /><path clip-path="url(#clip060)" d="M164.271 190.135 L171.91 190.135 L171.91 163.769 L163.6 165.436 L163.6 161.177 L171.864 159.51 L176.54 159.51 L176.54 190.135 L184.179 190.135 L184.179 194.07 L164.271 194.07 L164.271 190.135 Z" fill="#000000" fill-rule="nonzero" fill-opacity="1" /><path clip-path="url(#clip060)" d="M193.669 159.51 L212.026 159.51 L212.026 163.445 L197.952 163.445 L197.952 171.917 Q198.97 171.57 199.989 171.408 Q201.007 171.223 202.026 171.223 Q207.813 171.223 211.192 174.394 Q214.572 177.565 214.572 182.982 Q214.572 188.561 211.1 191.663 Q207.628 194.741 201.308 194.741 Q199.132 194.741 196.864 194.371 Q194.618 194 192.211 193.26 L192.211 188.561 Q194.294 189.695 196.517 190.25 Q198.739 190.806 201.216 190.806 Q205.22 190.806 207.558 188.7 Q209.896 186.593 209.896 182.982 Q209.896 179.371 207.558 177.264 Q205.22 175.158 201.216 175.158 Q199.341 175.158 197.466 175.575 Q195.614 175.991 193.669 176.871 L193.669 159.51 Z" fill="#000000" fill-rule="nonzero" fill-opacity="1" /><path clip-path="url(#clip060)" d="M42.4365 731.897 L47.9747 731.897 Q46.7016 734.379 46.065 737.053 Q45.4284 739.726 45.4284 742.591 Q45.4284 746.952 46.7652 749.148 Q48.102 751.312 50.7756 751.312 Q52.8126 751.312 53.9903 749.752 Q55.1361 748.193 56.1865 743.482 L56.6321 741.477 Q57.9689 735.239 60.4197 732.629 Q62.8386 729.987 67.1991 729.987 Q72.1644 729.987 75.0608 733.934 Q77.9572 737.849 77.9572 744.724 Q77.9572 747.588 77.3843 750.707 Q76.8432 753.795 75.7292 757.232 L69.6818 757.232 Q71.3687 753.986 72.228 750.835 Q73.0556 747.684 73.0556 744.596 Q73.0556 740.459 71.6551 738.231 Q70.2229 736.003 67.6447 736.003 Q65.2576 736.003 63.9845 737.626 Q62.7113 739.217 61.5337 744.66 L61.0562 746.697 Q59.9104 752.14 57.5551 754.559 Q55.168 756.978 51.0302 756.978 Q46.0013 756.978 43.2641 753.413 Q40.5268 749.848 40.5268 743.291 Q40.5268 740.045 41.0043 737.18 Q41.4817 734.316 42.4365 731.897 Z" fill="#000000" fill-rule="nonzero" fill-opacity="1" /><path clip-path="url(#clip060)" d="M59.1147 704.46 Q59.1147 711.558 60.7379 714.295 Q62.3612 717.033 66.2761 717.033 Q69.3953 717.033 71.2414 714.996 Q73.0556 712.927 73.0556 709.394 Q73.0556 704.524 69.6181 701.596 Q66.1488 698.636 60.4197 698.636 L59.1147 698.636 L59.1147 704.46 M56.6957 692.779 L77.0342 692.779 L77.0342 698.636 L71.6233 698.636 Q74.8698 700.641 76.4294 703.633 Q77.9572 706.625 77.9572 710.953 Q77.9572 716.428 74.9016 719.674 Q71.8143 722.889 66.6581 722.889 Q60.6425 722.889 57.5869 718.879 Q54.5314 714.837 54.5314 706.848 L54.5314 698.636 L53.9585 698.636 Q49.9162 698.636 47.7201 701.309 Q45.4921 703.951 45.4921 708.757 Q45.4921 711.813 46.2241 714.709 Q46.9562 717.606 48.4203 720.279 L43.0095 720.279 Q41.7681 717.065 41.1634 714.041 Q40.5268 711.017 40.5268 708.153 Q40.5268 700.418 44.5372 696.599 Q48.5476 692.779 56.6957 692.779 Z" fill="#000000" fill-rule="nonzero" fill-opacity="1" /><path clip-path="url(#clip060)" d="M48.2293 652.962 Q44.2826 650.766 42.4047 647.71 Q40.5268 644.655 40.5268 640.517 Q40.5268 634.947 44.4417 631.923 Q48.3248 628.9 55.5181 628.9 L77.0342 628.9 L77.0342 634.788 L55.709 634.788 Q50.5846 634.788 48.102 636.602 Q45.6194 638.416 45.6194 642.14 Q45.6194 646.692 48.6431 649.333 Q51.6668 651.975 56.8867 651.975 L77.0342 651.975 L77.0342 657.863 L55.709 657.863 Q50.5528 657.863 48.102 659.678 Q45.6194 661.492 45.6194 665.28 Q45.6194 669.767 48.6749 672.409 Q51.6986 675.051 56.8867 675.051 L77.0342 675.051 L77.0342 680.939 L41.3862 680.939 L41.3862 675.051 L46.9244 675.051 Q43.646 673.046 42.0864 670.245 Q40.5268 667.444 40.5268 663.593 Q40.5268 659.71 42.5002 657.004 Q44.4736 654.267 48.2293 652.962 Z" fill="#000000" fill-rule="nonzero" fill-opacity="1" /><path clip-path="url(#clip060)" d="M71.687 611.553 L90.5931 611.553 L90.5931 617.441 L41.3862 617.441 L41.3862 611.553 L46.7971 611.553 Q43.6142 609.707 42.0864 606.906 Q40.5268 604.073 40.5268 600.158 Q40.5268 593.665 45.6831 589.623 Q50.8393 585.549 59.242 585.549 Q67.6447 585.549 72.801 589.623 Q77.9572 593.665 77.9572 600.158 Q77.9572 604.073 76.4294 606.906 Q74.8698 609.707 71.687 611.553 M59.242 591.628 Q52.7808 591.628 49.1205 594.302 Q45.4284 596.944 45.4284 601.591 Q45.4284 606.238 49.1205 608.911 Q52.7808 611.553 59.242 611.553 Q65.7032 611.553 69.3953 608.911 Q73.0556 606.238 73.0556 601.591 Q73.0556 596.944 69.3953 594.302 Q65.7032 591.628 59.242 591.628 Z" fill="#000000" fill-rule="nonzero" fill-opacity="1" /><path clip-path="url(#clip060)" d="M27.509 575.841 L27.509 569.985 L77.0342 569.985 L77.0342 575.841 L27.509 575.841 Z" fill="#000000" fill-rule="nonzero" fill-opacity="1" /><path clip-path="url(#clip060)" d="M57.7461 527.239 L60.6106 527.239 L60.6106 554.166 Q66.6581 553.784 69.8409 550.538 Q72.9919 547.259 72.9919 541.435 Q72.9919 538.061 72.1644 534.91 Q71.3369 531.727 69.6818 528.608 L75.2199 528.608 Q76.5567 531.759 77.257 535.069 Q77.9572 538.379 77.9572 541.785 Q77.9572 550.315 72.9919 555.312 Q68.0267 560.277 59.5603 560.277 Q50.8074 560.277 45.6831 555.567 Q40.5268 550.824 40.5268 542.803 Q40.5268 535.61 45.1738 531.441 Q49.7889 527.239 57.7461 527.239 M56.0273 533.096 Q51.2212 533.159 48.3566 535.801 Q45.4921 538.411 45.4921 542.74 Q45.4921 547.641 48.2612 550.601 Q51.0302 553.53 56.0592 553.975 L56.0273 533.096 Z" fill="#000000" fill-rule="nonzero" fill-opacity="1" /><path clip-path="url(#clip060)" d="M55.5181 467.274 L77.0342 467.274 L77.0342 473.131 L55.709 473.131 Q50.6483 473.131 48.1338 475.104 Q45.6194 477.077 45.6194 481.024 Q45.6194 485.767 48.6431 488.504 Q51.6668 491.241 56.8867 491.241 L77.0342 491.241 L77.0342 497.129 L27.509 497.129 L27.509 491.241 L46.9244 491.241 Q43.7097 489.14 42.1183 486.308 Q40.5268 483.443 40.5268 479.719 Q40.5268 473.576 44.3463 470.425 Q48.1338 467.274 55.5181 467.274 Z" fill="#000000" fill-rule="nonzero" fill-opacity="1" /><path clip-path="url(#clip060)" d="M57.7461 425.101 L60.6106 425.101 L60.6106 452.028 Q66.6581 451.646 69.8409 448.4 Q72.9919 445.122 72.9919 439.297 Q72.9919 435.923 72.1644 432.772 Q71.3369 429.589 69.6818 426.47 L75.2199 426.47 Q76.5567 429.621 77.257 432.931 Q77.9572 436.241 77.9572 439.647 Q77.9572 448.177 72.9919 453.174 Q68.0267 458.139 59.5603 458.139 Q50.8074 458.139 45.6831 453.429 Q40.5268 448.686 40.5268 440.666 Q40.5268 433.472 45.1738 429.303 Q49.7889 425.101 57.7461 425.101 M56.0273 430.958 Q51.2212 431.022 48.3566 433.663 Q45.4921 436.273 45.4921 440.602 Q45.4921 445.504 48.2612 448.464 Q51.0302 451.392 56.0592 451.837 L56.0273 430.958 Z" fill="#000000" fill-rule="nonzero" fill-opacity="1" /><path clip-path="url(#clip060)" d="M41.3862 415.489 L41.3862 409.633 L77.0342 409.633 L77.0342 415.489 L41.3862 415.489 M27.509 415.489 L27.509 409.633 L34.925 409.633 L34.925 415.489 L27.509 415.489 Z" fill="#000000" fill-rule="nonzero" fill-opacity="1" /><path clip-path="url(#clip060)" d="M58.7964 373.921 Q52.4307 373.921 48.9296 376.563 Q45.4284 379.173 45.4284 383.915 Q45.4284 388.626 48.9296 391.268 Q52.4307 393.878 58.7964 393.878 Q65.1303 393.878 68.6314 391.268 Q72.1326 388.626 72.1326 383.915 Q72.1326 379.173 68.6314 376.563 Q65.1303 373.921 58.7964 373.921 M72.61 368.065 Q81.713 368.065 86.1371 372.107 Q90.5931 376.149 90.5931 384.488 Q90.5931 387.576 90.1157 390.313 Q89.6701 393.05 88.7152 395.628 L83.0179 395.628 Q84.4184 393.05 85.0868 390.536 Q85.7552 388.021 85.7552 385.411 Q85.7552 379.65 82.7315 376.786 Q79.7396 373.921 73.6603 373.921 L70.7639 373.921 Q73.915 375.735 75.4746 378.568 Q77.0342 381.401 77.0342 385.348 Q77.0342 391.904 72.0371 395.915 Q67.04 399.925 58.7964 399.925 Q50.521 399.925 45.5239 395.915 Q40.5268 391.904 40.5268 385.348 Q40.5268 381.401 42.0864 378.568 Q43.646 375.735 46.7971 373.921 L41.3862 373.921 L41.3862 368.065 L72.61 368.065 Z" fill="#000000" fill-rule="nonzero" fill-opacity="1" /><path clip-path="url(#clip060)" d="M55.5181 326.369 L77.0342 326.369 L77.0342 332.226 L55.709 332.226 Q50.6483 332.226 48.1338 334.199 Q45.6194 336.172 45.6194 340.119 Q45.6194 344.862 48.6431 347.599 Q51.6668 350.336 56.8867 350.336 L77.0342 350.336 L77.0342 356.224 L27.509 356.224 L27.509 350.336 L46.9244 350.336 Q43.7097 348.236 42.1183 345.403 Q40.5268 342.538 40.5268 338.814 Q40.5268 332.671 44.3463 329.52 Q48.1338 326.369 55.5181 326.369 Z" fill="#000000" fill-rule="nonzero" fill-opacity="1" /><path clip-path="url(#clip060)" d="M31.2647 308.895 L41.3862 308.895 L41.3862 296.832 L45.9377 296.832 L45.9377 308.895 L65.2894 308.895 Q69.6499 308.895 70.8913 307.718 Q72.1326 306.508 72.1326 302.848 L72.1326 296.832 L77.0342 296.832 L77.0342 302.848 Q77.0342 309.627 74.5197 312.206 Q71.9734 314.784 65.2894 314.784 L45.9377 314.784 L45.9377 319.081 L41.3862 319.081 L41.3862 314.784 L31.2647 314.784 L31.2647 308.895 Z" fill="#000000" fill-rule="nonzero" fill-opacity="1" /><path clip-path="url(#clip060)" d="M27.5726 254.341 Q34.8932 258.606 42.0546 260.675 Q49.216 262.744 56.5684 262.744 Q63.9208 262.744 71.1459 260.675 Q78.3391 258.575 85.6279 254.341 L85.6279 259.434 Q78.1482 264.208 70.9231 266.595 Q63.698 268.951 56.5684 268.951 Q49.4706 268.951 42.2774 266.595 Q35.0842 264.24 27.5726 259.434 L27.5726 254.341 Z" fill="#000000" fill-rule="nonzero" fill-opacity="1" /><path clip-path="url(#clip060)" d="M90.5931 243.583 L41.3862 243.583 L41.3862 237.727 L63.5389 237.727 Q68.154 237.727 70.5093 235.531 Q72.8646 233.335 72.8646 229.038 Q72.8646 224.327 70.191 221.972 Q67.5174 219.585 62.1702 219.585 L41.3862 219.585 L41.3862 213.728 L68.8224 213.728 Q70.7321 213.728 71.6551 213.187 Q72.5463 212.614 72.5463 211.436 Q72.5463 211.15 72.3872 210.641 Q72.1962 210.132 71.8143 209.24 L76.5249 209.24 Q77.257 210.545 77.6071 211.723 Q77.9572 212.869 77.9572 213.983 Q77.9572 216.179 76.7159 217.484 Q75.4746 218.789 72.9283 219.266 Q75.4427 220.858 76.7159 223.181 Q77.9572 225.473 77.9572 228.592 Q77.9572 231.839 76.7159 234.13 Q75.4746 236.39 72.9919 237.727 L90.5931 237.727 L90.5931 243.583 Z" fill="#000000" fill-rule="nonzero" fill-opacity="1" /><path clip-path="url(#clip060)" d="M48.2293 173.751 Q44.2826 171.555 42.4047 168.5 Q40.5268 165.444 40.5268 161.307 Q40.5268 155.737 44.4417 152.713 Q48.3248 149.689 55.5181 149.689 L77.0342 149.689 L77.0342 155.577 L55.709 155.577 Q50.5846 155.577 48.102 157.392 Q45.6194 159.206 45.6194 162.93 Q45.6194 167.481 48.6431 170.123 Q51.6668 172.765 56.8867 172.765 L77.0342 172.765 L77.0342 178.653 L55.709 178.653 Q50.5528 178.653 48.102 180.467 Q45.6194 182.282 45.6194 186.069 Q45.6194 190.557 48.6749 193.199 Q51.6986 195.84 56.8867 195.84 L77.0342 195.84 L77.0342 201.729 L41.3862 201.729 L41.3862 195.84 L46.9244 195.84 Q43.646 193.835 42.0864 191.034 Q40.5268 188.233 40.5268 184.382 Q40.5268 180.499 42.5002 177.794 Q44.4736 175.056 48.2293 173.751 Z" fill="#000000" fill-rule="nonzero" fill-opacity="1" /><path clip-path="url(#clip060)" d="M27.5726 138.931 L27.5726 133.839 Q35.0842 129.064 42.2774 126.709 Q49.4706 124.322 56.5684 124.322 Q63.698 124.322 70.9231 126.709 Q78.1482 129.064 85.6279 133.839 L85.6279 138.931 Q78.3391 134.698 71.1459 132.629 Q63.9208 130.528 56.5684 130.528 Q49.216 130.528 42.0546 132.629 Q34.8932 134.698 27.5726 138.931 Z" fill="#000000" fill-rule="nonzero" fill-opacity="1" /><polyline clip-path="url(#clip062)" style="stroke:#009af9; stroke-linecap:round; stroke-linejoin:round; stroke-width:4; stroke-opacity:1; fill:none" points="275.766,812.034 284.087,809.029 292.407,806.025 300.728,803.02 309.049,800.015 317.37,797.01 325.691,794.005 334.011,791 342.332,787.995 350.653,784.99 358.974,781.985 367.294,778.98 375.615,775.975 383.936,772.97 392.257,769.965 400.578,766.96 408.898,763.955 417.219,760.95 425.54,757.945 433.861,754.941 442.182,751.936 450.502,748.931 458.823,745.926 467.144,742.921 475.465,739.916 483.785,736.911 492.106,733.906 500.427,730.901 508.748,727.896 517.069,724.891 525.389,721.886 533.71,718.881 542.031,715.876 550.352,712.871 558.672,709.866 566.993,706.861 575.314,703.857 583.635,700.852 591.956,697.847 600.276,694.842 608.597,691.837 616.918,688.832 625.239,685.827 633.559,682.822 641.88,679.817 650.201,676.812 658.522,673.807 666.843,670.802 675.163,667.797 683.484,664.792 691.805,661.787 700.126,658.782 708.446,655.777 716.767,652.773 725.088,649.768 733.409,646.763 741.73,643.758 750.05,640.753 758.371,637.748 766.692,634.743 775.013,631.738 783.333,628.733 791.654,625.728 799.975,622.723 808.296,619.718 816.617,616.713 824.937,613.708 833.258,610.703 841.579,607.698 849.9,604.693 858.22,601.689 866.541,598.684 874.862,595.679 883.183,592.674 891.504,589.669 899.824,586.664 908.145,583.659 916.466,580.654 924.787,577.649 933.107,574.644 941.428,571.639 949.749,568.634 958.07,565.629 966.391,562.624 974.711,559.619 983.032,556.614 991.353,553.609 999.674,550.605 1007.99,547.6 1016.32,544.595 1024.64,541.59 1032.96,538.585 1041.28,535.58 1049.6,532.575 1057.92,529.57 1066.24,526.565 1074.56,523.56 1082.88,520.555 1091.2,517.55 1099.52,514.545 1107.84,511.54 1116.16,508.535 1124.49,505.53 1132.81,502.526 1141.13,499.521 1149.45,496.516 1157.77,493.511 1166.09,490.506 1174.41,487.501 1182.73,484.496 1191.05,481.491 1199.37,478.486 1207.69,475.481 1216.01,472.476 1224.33,469.471 1232.66,466.466 1240.98,463.461 1249.3,460.456 1257.62,457.451 1265.94,454.446 1274.26,451.442 1282.58,448.437 1290.9,445.432 1299.22,442.427 1307.54,439.422 1315.86,436.417 1324.18,433.412 1332.5,430.407 1340.83,427.402 1349.15,424.397 1357.47,421.392 1365.79,418.387 1374.11,415.382 1382.43,412.377 1390.75,409.372 1399.07,406.367 1407.39,403.362 1415.71,400.358 1424.03,397.353 1432.35,394.348 1440.68,391.343 1449,388.338 1457.32,385.333 1465.64,382.328 1473.96,379.323 1482.28,376.318 1490.6,373.313 1498.92,370.308 1507.24,367.303 1515.56,364.298 "/>
<polyline clip-path="url(#clip062)" style="stroke:#e26f46; stroke-linecap:round; stroke-linejoin:round; stroke-width:4; stroke-opacity:1; fill:none" points="275.766,810.069 284.087,805.099 292.407,800.129 300.728,795.159 309.049,790.189 317.37,785.219 325.691,780.248 334.011,775.278 342.332,770.308 350.653,765.338 358.974,760.368 367.294,755.398 375.615,750.428 383.936,745.457 392.257,740.487 400.578,735.517 408.898,730.547 417.219,725.577 425.54,720.607 433.861,715.637 442.182,710.667 450.502,705.696 458.823,700.726 467.144,695.756 475.465,690.786 483.785,685.816 492.106,680.846 500.427,675.876 508.748,670.906 517.069,665.935 525.389,660.965 533.71,655.995 542.031,651.025 550.352,646.055 558.672,641.085 566.993,636.115 575.314,631.144 583.635,626.174 591.956,621.204 600.276,616.234 608.597,611.264 616.918,606.294 625.239,601.324 633.559,596.354 641.88,591.383 650.201,586.413 658.522,581.443 666.843,576.473 675.163,571.503 683.484,566.533 691.805,561.563 700.126,556.592 708.446,551.622 716.767,546.652 725.088,541.682 733.409,536.712 741.73,531.742 750.05,526.772 758.371,521.802 766.692,516.831 775.013,511.861 783.333,506.891 791.654,501.921 799.975,496.951 808.296,491.981 816.617,487.011 824.937,482.04 833.258,477.07 841.579,472.1 849.9,467.13 858.22,462.16 866.541,457.19 874.862,452.22 883.183,447.25 891.504,442.279 899.824,437.309 908.145,432.339 916.466,427.369 924.787,422.399 933.107,417.429 941.428,412.459 949.749,407.489 958.07,402.518 966.391,397.548 974.711,392.578 983.032,387.608 991.353,382.638 999.674,377.668 1007.99,372.698 1016.32,367.727 1024.64,362.757 1032.96,357.787 1041.28,352.817 1049.6,347.847 1057.92,342.877 1066.24,337.907 1074.56,332.937 1082.88,327.966 1091.2,322.996 1099.52,318.026 1107.84,313.056 1116.16,308.086 1124.49,303.116 1132.81,298.146 1141.13,293.175 1149.45,288.205 1157.77,283.235 1166.09,278.265 1174.41,273.295 1182.73,268.325 1191.05,263.355 1199.37,258.385 1207.69,253.414 1216.01,248.444 1224.33,243.474 1232.66,238.504 1240.98,233.534 1249.3,228.564 1257.62,223.594 1265.94,218.623 1274.26,213.653 1282.58,208.683 1290.9,203.713 1299.22,198.743 1307.54,193.773 1315.86,188.803 1324.18,183.833 1332.5,178.862 1340.83,173.892 1349.15,168.922 1357.47,163.952 1365.79,158.982 1374.11,154.012 1382.43,149.042 1390.75,144.072 1399.07,139.101 1407.39,134.131 1415.71,129.161 1424.03,124.191 1432.35,119.221 1440.68,114.251 1449,109.281 1457.32,104.31 1465.64,99.3403 1473.96,94.3702 1482.28,89.4001 1490.6,84.4299 1498.92,79.4598 1507.24,74.4897 1515.56,69.5195 "/>
<path clip-path="url(#clip060)" d="M282.378 229 L685.485 229 L685.485 73.4796 L282.378 73.4796  Z" fill="#ffffff" fill-rule="evenodd" fill-opacity="1"/>
<polyline clip-path="url(#clip060)" style="stroke:#000000; stroke-linecap:round; stroke-linejoin:round; stroke-width:4; stroke-opacity:1; fill:none" points="282.378,229 685.485,229 685.485,73.4796 282.378,73.4796 282.378,229 "/>
<polyline clip-path="url(#clip060)" style="stroke:#009af9; stroke-linecap:round; stroke-linejoin:round; stroke-width:4; stroke-opacity:1; fill:none" points="296.98,125.32 384.592,125.32 "/>
<path clip-path="url(#clip060)" d="M415.699 106.581 L415.699 110.123 L411.625 110.123 Q409.333 110.123 408.431 111.049 Q407.551 111.975 407.551 114.382 L407.551 116.674 L414.565 116.674 L414.565 119.984 L407.551 119.984 L407.551 142.6 L403.269 142.6 L403.269 119.984 L399.195 119.984 L399.195 116.674 L403.269 116.674 L403.269 114.868 Q403.269 110.54 405.282 108.572 Q407.296 106.581 411.671 106.581 L415.699 106.581 Z" fill="#000000" fill-rule="nonzero" fill-opacity="1" /><path clip-path="url(#clip060)" d="M419.264 116.674 L423.523 116.674 L423.523 142.6 L419.264 142.6 L419.264 116.674 M419.264 106.581 L423.523 106.581 L423.523 111.975 L419.264 111.975 L419.264 106.581 Z" fill="#000000" fill-rule="nonzero" fill-opacity="1" /><path clip-path="url(#clip060)" d="M432.435 106.581 L436.694 106.581 L436.694 142.6 L432.435 142.6 L432.435 106.581 Z" fill="#000000" fill-rule="nonzero" fill-opacity="1" /><path clip-path="url(#clip060)" d="M465.791 121.651 Q467.389 118.78 469.611 117.415 Q471.833 116.049 474.842 116.049 Q478.893 116.049 481.092 118.896 Q483.291 121.72 483.291 126.952 L483.291 142.6 L479.009 142.6 L479.009 127.09 Q479.009 123.364 477.689 121.558 Q476.37 119.753 473.662 119.753 Q470.352 119.753 468.43 121.952 Q466.509 124.151 466.509 127.947 L466.509 142.6 L462.227 142.6 L462.227 127.09 Q462.227 123.34 460.907 121.558 Q459.588 119.753 456.833 119.753 Q453.569 119.753 451.648 121.975 Q449.727 124.174 449.727 127.947 L449.727 142.6 L445.444 142.6 L445.444 116.674 L449.727 116.674 L449.727 120.702 Q451.185 118.317 453.222 117.183 Q455.259 116.049 458.06 116.049 Q460.884 116.049 462.852 117.484 Q464.842 118.919 465.791 121.651 Z" fill="#000000" fill-rule="nonzero" fill-opacity="1" /><polyline clip-path="url(#clip060)" style="stroke:#e26f46; stroke-linecap:round; stroke-linejoin:round; stroke-width:4; stroke-opacity:1; fill:none" points="296.98,177.16 384.592,177.16 "/>
<path clip-path="url(#clip060)" d="M403.477 190.551 L403.477 204.301 L399.195 204.301 L399.195 168.514 L403.477 168.514 L403.477 172.449 Q404.819 170.134 406.857 169.023 Q408.917 167.889 411.764 167.889 Q416.486 167.889 419.426 171.639 Q422.389 175.389 422.389 181.5 Q422.389 187.611 419.426 191.361 Q416.486 195.111 411.764 195.111 Q408.917 195.111 406.857 194 Q404.819 192.866 403.477 190.551 M417.968 181.5 Q417.968 176.801 416.023 174.139 Q414.102 171.454 410.722 171.454 Q407.343 171.454 405.398 174.139 Q403.477 176.801 403.477 181.5 Q403.477 186.199 405.398 188.884 Q407.343 191.546 410.722 191.546 Q414.102 191.546 416.023 188.884 Q417.968 186.199 417.968 181.5 Z" fill="#000000" fill-rule="nonzero" fill-opacity="1" /><path clip-path="url(#clip060)" d="M441.231 181.407 Q436.069 181.407 434.079 182.588 Q432.088 183.768 432.088 186.616 Q432.088 188.884 433.569 190.227 Q435.074 191.546 437.643 191.546 Q441.185 191.546 443.315 189.046 Q445.467 186.523 445.467 182.356 L445.467 181.407 L441.231 181.407 M449.727 179.648 L449.727 194.44 L445.467 194.44 L445.467 190.504 Q444.009 192.866 441.833 194 Q439.657 195.111 436.509 195.111 Q432.528 195.111 430.167 192.889 Q427.829 190.643 427.829 186.893 Q427.829 182.518 430.745 180.296 Q433.685 178.074 439.495 178.074 L445.467 178.074 L445.467 177.657 Q445.467 174.718 443.523 173.12 Q441.602 171.5 438.106 171.5 Q435.884 171.5 433.778 172.032 Q431.671 172.565 429.727 173.63 L429.727 169.694 Q432.065 168.792 434.264 168.352 Q436.463 167.889 438.546 167.889 Q444.171 167.889 446.949 170.805 Q449.727 173.722 449.727 179.648 Z" fill="#000000" fill-rule="nonzero" fill-opacity="1" /><path clip-path="url(#clip060)" d="M473.523 172.495 Q472.805 172.079 471.949 171.893 Q471.115 171.685 470.097 171.685 Q466.486 171.685 464.541 174.046 Q462.62 176.384 462.62 180.782 L462.62 194.44 L458.338 194.44 L458.338 168.514 L462.62 168.514 L462.62 172.542 Q463.963 170.18 466.115 169.046 Q468.268 167.889 471.347 167.889 Q471.787 167.889 472.319 167.958 Q472.852 168.005 473.5 168.12 L473.523 172.495 Z" fill="#000000" fill-rule="nonzero" fill-opacity="1" /><path clip-path="url(#clip060)" d="M482.203 161.153 L482.203 168.514 L490.976 168.514 L490.976 171.824 L482.203 171.824 L482.203 185.898 Q482.203 189.069 483.06 189.972 Q483.939 190.875 486.601 190.875 L490.976 190.875 L490.976 194.44 L486.601 194.44 Q481.671 194.44 479.796 192.611 Q477.921 190.759 477.921 185.898 L477.921 171.824 L474.796 171.824 L474.796 168.514 L477.921 168.514 L477.921 161.153 L482.203 161.153 Z" fill="#000000" fill-rule="nonzero" fill-opacity="1" /><path clip-path="url(#clip060)" d="M496.578 168.514 L500.837 168.514 L500.837 194.44 L496.578 194.44 L496.578 168.514 M496.578 158.421 L500.837 158.421 L500.837 163.815 L496.578 163.815 L496.578 158.421 Z" fill="#000000" fill-rule="nonzero" fill-opacity="1" /><path clip-path="url(#clip060)" d="M528.407 169.509 L528.407 173.491 Q526.601 172.495 524.773 172.009 Q522.967 171.5 521.115 171.5 Q516.972 171.5 514.68 174.139 Q512.388 176.755 512.388 181.5 Q512.388 186.245 514.68 188.884 Q516.972 191.5 521.115 191.5 Q522.967 191.5 524.773 191.014 Q526.601 190.504 528.407 189.509 L528.407 193.444 Q526.624 194.278 524.703 194.694 Q522.805 195.111 520.652 195.111 Q514.796 195.111 511.347 191.43 Q507.898 187.75 507.898 181.5 Q507.898 175.157 511.37 171.523 Q514.865 167.889 520.93 167.889 Q522.898 167.889 524.773 168.306 Q526.648 168.699 528.407 169.509 Z" fill="#000000" fill-rule="nonzero" fill-opacity="1" /><path clip-path="url(#clip060)" d="M535.814 158.421 L540.073 158.421 L540.073 194.44 L535.814 194.44 L535.814 158.421 Z" fill="#000000" fill-rule="nonzero" fill-opacity="1" /><path clip-path="url(#clip060)" d="M571.161 180.412 L571.161 182.495 L551.578 182.495 Q551.856 186.893 554.217 189.208 Q556.601 191.5 560.837 191.5 Q563.291 191.5 565.583 190.898 Q567.897 190.296 570.166 189.092 L570.166 193.12 Q567.874 194.092 565.467 194.602 Q563.059 195.111 560.583 195.111 Q554.379 195.111 550.745 191.5 Q547.134 187.889 547.134 181.731 Q547.134 175.366 550.559 171.639 Q554.008 167.889 559.842 167.889 Q565.073 167.889 568.106 171.268 Q571.161 174.625 571.161 180.412 M566.902 179.162 Q566.856 175.667 564.934 173.583 Q563.036 171.5 559.888 171.5 Q556.323 171.5 554.171 173.514 Q552.041 175.528 551.717 179.185 L566.902 179.162 Z" fill="#000000" fill-rule="nonzero" fill-opacity="1" /><path clip-path="url(#clip060)" d="M603.453 158.468 Q600.351 163.792 598.846 169 Q597.342 174.208 597.342 179.555 Q597.342 184.903 598.846 190.157 Q600.374 195.389 603.453 200.69 L599.749 200.69 Q596.277 195.25 594.541 189.995 Q592.828 184.741 592.828 179.555 Q592.828 174.393 594.541 169.162 Q596.254 163.931 599.749 158.468 L603.453 158.468 Z" fill="#000000" fill-rule="nonzero" fill-opacity="1" /><path clip-path="url(#clip060)" d="M633.267 178.792 L633.267 204.301 L629.008 204.301 L629.008 178.93 Q629.008 175.25 627.573 173.421 Q626.138 171.593 623.267 171.593 Q619.818 171.593 617.828 173.792 Q615.837 175.991 615.837 179.787 L615.837 194.44 L611.554 194.44 L611.554 168.514 L615.837 168.514 L615.837 172.542 Q617.365 170.204 619.425 169.046 Q621.508 167.889 624.216 167.889 Q628.684 167.889 630.976 170.643 Q633.267 173.421 633.267 178.792 Z" fill="#000000" fill-rule="nonzero" fill-opacity="1" /><path clip-path="url(#clip060)" d="M653.684 185.667 L653.684 194.44 L650.999 194.44 L650.999 185.759 Q650.999 183.699 650.096 182.68 Q649.193 181.639 647.388 181.639 Q645.212 181.639 643.962 182.889 Q642.712 184.116 642.712 186.245 L642.712 194.44 L640.003 194.44 L640.003 174.278 L642.712 174.278 L642.712 182.171 Q643.661 180.875 644.957 180.227 Q646.277 179.579 647.989 179.579 Q650.79 179.579 652.226 181.13 Q653.684 182.68 653.684 185.667 Z" fill="#000000" fill-rule="nonzero" fill-opacity="1" /><path clip-path="url(#clip060)" d="M660.258 158.468 L663.962 158.468 Q667.434 163.931 669.147 169.162 Q670.883 174.393 670.883 179.555 Q670.883 184.741 669.147 189.995 Q667.434 195.25 663.962 200.69 L660.258 200.69 Q663.337 195.389 664.841 190.157 Q666.369 184.903 666.369 179.555 Q666.369 174.208 664.841 169 Q663.337 163.792 660.258 158.468 Z" fill="#000000" fill-rule="nonzero" fill-opacity="1" /></svg>
